<?xml version="1.0" encoding="utf-8"?>
<!-- Generator: Adobe Illustrator 27.5.0, SVG Export Plug-In . SVG Version: 6.00 Build 0)  -->
<svg version="1.1" xmlns="http://www.w3.org/2000/svg" xmlns:xlink="http://www.w3.org/1999/xlink" x="0px" y="0px"
	 viewBox="0 0 500 500" style="enable-background:new 0 0 500 500;" xml:space="preserve">
<g id="BACKGROUND">
	
</g>
<g id="OBJECTS">
	<g>
		<g>
			
				<linearGradient id="SVGID_1_" gradientUnits="userSpaceOnUse" x1="170.3318" y1="191.2946" x2="218.5836" y2="277.3086" gradientTransform="matrix(-1 0 0 1 309.3744 0)">
				<stop  offset="0" style="stop-color:#CBE4FE"/>
				<stop  offset="1" style="stop-color:#CBE4FE;stop-opacity:0"/>
			</linearGradient>
			<polygon style="fill:url(#SVGID_1_);" points="189.59,213.264 68.87,281.536 35.694,263.449 156.413,195.177 			"/>
			<g>
				
					<line style="fill:none;stroke:#00A1BE;stroke-width:3;stroke-linecap:round;stroke-linejoin:round;stroke-miterlimit:10;" x1="106.86" y1="217.4" x2="106.86" y2="260.794"/>
				
					<line style="fill:none;stroke:#00A1BE;stroke-width:3;stroke-linecap:round;stroke-linejoin:round;stroke-miterlimit:10;" x1="73.683" y1="199.313" x2="73.683" y2="242.707"/>
			</g>
			<g>
				
					<line style="fill:none;stroke:#00A1BE;stroke-width:3;stroke-linecap:round;stroke-linejoin:round;stroke-miterlimit:10;" x1="189.632" y1="171.088" x2="189.632" y2="214.482"/>
				
					<line style="fill:none;stroke:#00A1BE;stroke-width:3;stroke-linecap:round;stroke-linejoin:round;stroke-miterlimit:10;" x1="156.455" y1="153" x2="156.455" y2="196.395"/>
			</g>
			<g>
				<polygon style="fill:#00A1BE;" points="66.744,213.527 107.277,236.594 196.094,185.379 196.094,182.379 155.627,162.727 
					66.744,210.527 				"/>
				<polygon style="fill:#B9EAF0;" points="66.744,210.527 107.277,233.594 196.094,182.379 155.627,159.727 				"/>
			</g>
			<g>
				<g>
					<g>
						<polygon style="fill:#00A1BE;" points="141.816,170.812 123.714,180.623 117.495,177.168 135.163,167.263 						"/>
						<polygon style="fill:#00A1BE;" points="123.714,180.623 123.714,194.231 117.495,190.602 117.495,177.168 						"/>
						<polygon style="fill:#BBB8CE;" points="117.495,180.296 117.495,186.169 123.714,189.623 123.714,183.751 						"/>
						<polygon style="fill:#B9EAF0;" points="141.816,170.812 123.714,180.623 123.714,194.231 141.816,183.949 						"/>
						<polygon style="fill:#EBEAF0;" points="123.714,183.754 123.714,189.612 141.816,179.801 141.816,173.943 						"/>
					</g>
					<g>
						<polygon style="fill:#00A1BE;" points="152.088,176.487 133.986,186.298 127.768,182.844 145.436,172.939 						"/>
						<polygon style="fill:#00A1BE;" points="133.986,186.298 133.986,199.906 127.768,196.277 127.768,182.844 						"/>
						<polygon style="fill:#BBB8CE;" points="127.768,185.971 127.768,191.844 133.986,195.298 133.986,189.426 						"/>
						<polygon style="fill:#B9EAF0;" points="152.088,176.487 133.986,186.298 133.986,199.906 152.088,189.624 						"/>
						<polygon style="fill:#EBEAF0;" points="133.986,189.43 133.986,195.287 152.089,185.476 152.089,179.618 						"/>
					</g>
					<g>
						<polygon style="fill:#00A1BE;" points="162.361,182.162 144.259,191.973 138.041,188.519 155.709,178.614 						"/>
						<polygon style="fill:#00A1BE;" points="144.259,191.973 144.259,205.581 138.041,201.952 138.041,188.519 						"/>
						<polygon style="fill:#BBB8CE;" points="138.041,191.647 138.041,197.519 144.259,200.974 144.259,195.101 						"/>
						<polygon style="fill:#B9EAF0;" points="162.361,182.162 144.259,191.973 144.259,205.581 162.361,195.299 						"/>
						<polygon style="fill:#EBEAF0;" points="144.259,195.105 144.259,200.962 162.361,191.151 162.361,185.294 						"/>
					</g>
				</g>
				<g>
					<path style="opacity:0.47;fill:#FFAD10;" d="M159.084,176.023c-1.931,1.115-5.062,1.115-6.993,0
						c-1.931-1.115-1.931-2.923,0-4.038c1.931-1.115,5.062-1.115,6.993,0C161.015,173.1,161.015,174.908,159.084,176.023z"/>
					<path style="opacity:0.64;fill:#FFCC85;" d="M152.091,161.214c1.931-1.115,5.062-1.115,6.993,0
						c0.966,0.558,1.448,1.288,1.448,2.019l0,0v10.771c0,0.731-0.483,1.461-1.448,2.019c-1.931,1.115-5.062,1.115-6.993,0
						c-0.966-0.558-1.448-1.288-1.448-2.019v-10.77l0,0C150.643,162.503,151.125,161.772,152.091,161.214z"/>
					<path style="fill:#FF5746;" d="M152.091,173.168c1.931,1.115,5.062,1.115,6.993,0c0.966-0.557,1.448-1.288,1.448-2.019v0
						v-6.738c-0.005,0-0.009,0.001-0.014,0.001c-0.06,0.68-0.534,1.35-1.434,1.87c-1.931,1.115-5.062,1.115-6.993,0
						c-0.897-0.518-1.372-1.186-1.436-1.864h-0.013v6.731C150.643,171.88,151.126,172.61,152.091,173.168z"/>
					<path style="fill:#380200;" d="M159.084,161.73c-1.931,1.115-5.062,1.115-6.993,0c-1.931-1.115-1.931-2.923,0-4.038
						c1.931-1.115,5.062-1.115,6.993,0C161.015,158.808,161.015,160.616,159.084,161.73z"/>
					<rect x="150.643" y="157.028" style="fill:#380200;" width="9.89" height="2.684"/>
					<path style="fill:#736374;" d="M159.084,159.046c-1.931,1.115-5.062,1.115-6.993,0c-1.931-1.115-1.931-2.923,0-4.037
						c1.931-1.115,5.062-1.115,6.993,0C161.015,156.124,161.015,157.932,159.084,159.046z"/>
					<path style="opacity:0.36;fill:#FFCC85;" d="M157.441,157.927c-1.023,0.591-2.683,0.591-3.706,0
						c-1.023-0.591-1.023-1.549,0-2.14c1.023-0.591,2.683-0.591,3.706,0C158.464,156.378,158.464,157.336,157.441,157.927z"/>
				</g>
				<g>
					<path style="fill:#FFAD10;" d="M174.826,184.166c-2.581,1.49-6.765,1.49-9.345,0c-2.581-1.49-2.581-3.906,0-5.396
						c2.581-1.49,6.765-1.49,9.345,0C177.407,180.26,177.407,182.676,174.826,184.166z"/>
					<path style="opacity:0.64;fill:#FFCC85;" d="M165.175,164.146c0.768-1.124,2.229-2.465,4.978-2.465s4.206,1.344,4.978,2.465
						c0.416,0.605,1.63,2.014,1.63,2.929v14.393c0,0.977-0.645,1.953-1.936,2.698c-2.581,1.49-6.765,1.49-9.345,0
						c-1.29-0.745-1.936-1.722-1.936-2.698v-14.393C163.545,166.16,164.81,164.681,165.175,164.146z"/>
					<path style="fill:#BBB8CE;" d="M165.481,180.351c2.581,1.49,6.765,1.49,9.345,0c1.29-0.745,1.936-1.721,1.936-2.698v0v-9.004
						c-0.007,0.001-0.013,0.001-0.019,0.002c-0.08,0.909-0.713,1.805-1.916,2.499c-2.581,1.49-6.765,1.49-9.345,0
						c-1.199-0.692-1.834-1.585-1.918-2.491h-0.017v8.995C163.546,178.63,164.191,179.606,165.481,180.351z"/>
					<g>
						<path style="fill:#380200;" d="M173.369,163.667c-1.776,1.025-4.655,1.025-6.431,0c-1.776-1.025-1.776-2.688,0-3.713
							c1.776-1.025,4.655-1.025,6.431,0C175.145,160.979,175.145,162.641,173.369,163.667z"/>
						<rect x="165.606" y="159.342" style="fill:#380200;" width="9.095" height="2.468"/>
						<path style="fill:#736374;" d="M173.369,161.198c-1.776,1.025-4.655,1.025-6.431,0c-1.776-1.025-1.776-2.688,0-3.713
							c1.776-1.025,4.655-1.025,6.431,0C175.145,158.51,175.145,160.173,173.369,161.198z"/>
						<path style="opacity:0.36;fill:#FFCC85;" d="M171.858,160.168c-0.941,0.543-2.467,0.543-3.408,0
							c-0.941-0.543-0.941-1.424,0-1.968c0.941-0.543,2.467-0.543,3.408,0C172.799,158.744,172.799,159.625,171.858,160.168z"/>
					</g>
				</g>
				<g>
					<g>
						<path style="fill:#B9EAF0;" d="M116.263,204.919c-2.581,1.49-6.765,1.49-9.345,0c-2.581-1.49-2.581-3.906,0-5.396
							c2.581-1.49,6.765-1.49,9.345,0C118.844,201.013,118.844,203.429,116.263,204.919z"/>
						<path style="opacity:0.47;fill:#FFFFFF;" d="M118.199,187.827h-13.216v14.393c0,0.977,0.645,1.953,1.935,2.698
							c2.581,1.49,6.765,1.49,9.345,0c1.29-0.745,1.936-1.721,1.936-2.698l0,0V187.827z"/>
						<path style="fill:#00A1BE;" d="M106.918,201.103c2.581,1.49,6.765,1.49,9.345,0c1.29-0.745,1.936-1.721,1.936-2.698v0v-9.004
							c-0.007,0.001-0.013,0.002-0.019,0.002c-0.08,0.909-0.713,1.805-1.916,2.499c-2.581,1.49-6.765,1.49-9.345,0
							c-1.199-0.692-1.834-1.585-1.918-2.491h-0.017v8.995C104.983,199.383,105.628,200.359,106.918,201.103z"/>
						<path style="fill:#00A1BE;" d="M116.263,190.525c-2.581,1.49-6.765,1.49-9.345,0c-2.581-1.49-2.581-3.906,0-5.396
							c2.581-1.49,6.765-1.49,9.345,0C118.844,186.62,118.844,189.035,116.263,190.525z"/>
						<path style="fill:#380200;" d="M116.263,185.819c-2.581,1.49-6.765,1.49-9.345,0c-2.581-1.49-2.581-3.906,0-5.396
							c2.581-1.49,6.765-1.49,9.345,0C118.844,181.914,118.844,184.329,116.263,185.819z"/>
						<rect x="104.982" y="179.535" style="fill:#380200;" width="13.216" height="3.587"/>
						<path style="fill:#736374;" d="M116.263,182.233c-2.581,1.49-6.765,1.49-9.345,0c-2.581-1.49-2.581-3.906,0-5.396
							c2.581-1.49,6.765-1.49,9.345,0C118.844,178.327,118.844,180.743,116.263,182.233z"/>
						<path style="opacity:0.36;fill:#FFCC85;" d="M114.067,180.736c-1.368,0.79-3.585,0.79-4.952,0c-1.368-0.79-1.368-2.07,0-2.859
							c1.368-0.789,3.585-0.789,4.952,0C115.434,178.666,115.434,179.947,114.067,180.736z"/>
					</g>
					<g>
						<path style="opacity:0.47;fill:#FFFFFF;" d="M130.829,213.343c-2.581,1.49-6.765,1.49-9.345,0
							c-2.581-1.49-2.581-3.906,0-5.396c2.581-1.49,6.765-1.49,9.345,0C133.41,209.438,133.41,211.853,130.829,213.343z"/>
						<path style="opacity:0.47;fill:#FFFFFF;" d="M132.765,196.252h-13.216v14.393c0,0.977,0.645,1.953,1.936,2.698
							c2.581,1.49,6.765,1.49,9.345,0c1.29-0.745,1.936-1.721,1.936-2.698l0,0V196.252z"/>
						<path style="fill:#00A1BE;" d="M121.484,209.528c2.581,1.49,6.765,1.49,9.345,0c1.29-0.745,1.936-1.721,1.936-2.698v0v-9.004
							c-0.007,0.001-0.013,0.001-0.019,0.002c-0.08,0.909-0.713,1.805-1.916,2.499c-2.581,1.49-6.765,1.49-9.345,0
							c-1.199-0.692-1.834-1.585-1.918-2.491h-0.017v8.995C119.549,207.807,120.194,208.783,121.484,209.528z"/>
						<path style="fill:#00A1BE;" d="M130.829,198.95c-2.581,1.49-6.765,1.49-9.345,0c-2.581-1.49-2.581-3.906,0-5.396
							c2.581-1.49,6.765-1.49,9.345,0C133.41,195.044,133.41,197.46,130.829,198.95z"/>
						<path style="fill:#380200;" d="M130.829,194.244c-2.581,1.49-6.765,1.49-9.345,0c-2.581-1.49-2.581-3.906,0-5.396
							c2.581-1.49,6.765-1.49,9.345,0C133.41,190.339,133.41,192.754,130.829,194.244z"/>
						<rect x="119.548" y="187.96" style="fill:#380200;" width="13.216" height="3.587"/>
						<path style="fill:#736374;" d="M130.829,190.657c-2.581,1.49-6.765,1.49-9.345,0c-2.581-1.49-2.581-3.906,0-5.396
							c2.581-1.49,6.765-1.49,9.345,0C133.41,186.752,133.41,189.167,130.829,190.657z"/>
						<path style="opacity:0.36;fill:#FFCC85;" d="M128.633,189.161c-1.368,0.79-3.585,0.79-4.952,0s-1.368-2.07,0-2.859
							c1.368-0.79,3.585-0.79,4.952,0C130,187.091,130,188.371,128.633,189.161z"/>
					</g>
				</g>
				<g>
					<g>
						<path style="fill:#B9EAF0;" d="M97.605,215.185c-2.581,1.49-6.765,1.49-9.345,0c-2.581-1.49-2.581-3.906,0-5.395
							c2.581-1.49,6.765-1.49,9.345,0C100.186,211.279,100.186,213.695,97.605,215.185z"/>
						<path style="fill:#00A1BE;" d="M88.26,211.37c2.581,1.49,6.765,1.49,9.345,0c1.29-0.745,1.935-1.721,1.935-2.698v0v-9.004
							c-0.007,0.001-0.013,0.002-0.019,0.002c-0.08,0.909-0.713,1.805-1.916,2.499c-2.581,1.49-6.765,1.49-9.345,0
							c-1.199-0.692-1.834-1.585-1.918-2.491h-0.017v8.995C86.325,209.649,86.97,210.625,88.26,211.37z"/>
						<path style="opacity:0.47;fill:#FFFFFF;" d="M88.26,195.396c2.581-1.49,6.765-1.49,9.345,0
							c1.29,0.745,1.936,1.721,1.935,2.698l0,0v14.393c0,0.977-0.645,1.953-1.935,2.698c-2.581,1.49-6.765,1.49-9.345,0
							c-1.29-0.745-1.936-1.721-1.935-2.698v-14.392C86.324,197.118,86.969,196.141,88.26,195.396z"/>
						<g>
							<path style="fill:#380200;" d="M96.564,196.541c-2.006,1.158-5.257,1.158-7.263,0c-2.006-1.158-2.006-3.035,0-4.193
								s5.257-1.158,7.263,0S98.569,195.383,96.564,196.541z"/>
							<rect x="87.797" y="191.657" style="fill:#380200;" width="10.271" height="2.787"/>
							<path style="fill:#736374;" d="M96.564,193.753c-2.006,1.158-5.257,1.158-7.263,0c-2.006-1.158-2.006-3.035,0-4.193
								s5.257-1.158,7.263,0S98.569,192.595,96.564,193.753z"/>
							<path style="opacity:0.36;fill:#FFCC85;" d="M94.857,192.59c-1.063,0.614-2.786,0.614-3.849,0
								c-1.063-0.614-1.063-1.608,0-2.222c1.063-0.614,2.786-0.614,3.849,0C95.92,190.982,95.92,191.977,94.857,192.59z"/>
						</g>
					</g>
				</g>
			</g>
			<g>
				
					<line style="fill:none;stroke:#00A1BE;stroke-width:3;stroke-linecap:round;stroke-linejoin:round;stroke-miterlimit:10;" x1="106.86" y1="185.2" x2="106.86" y2="228.594"/>
				
					<line style="fill:none;stroke:#00A1BE;stroke-width:3;stroke-linecap:round;stroke-linejoin:round;stroke-miterlimit:10;" x1="73.683" y1="167.113" x2="73.683" y2="210.507"/>
			</g>
			<g>
				
					<line style="fill:none;stroke:#00A1BE;stroke-width:3;stroke-linecap:round;stroke-linejoin:round;stroke-miterlimit:10;" x1="189.632" y1="138.888" x2="189.632" y2="182.282"/>
				
					<line style="fill:none;stroke:#00A1BE;stroke-width:3;stroke-linecap:round;stroke-linejoin:round;stroke-miterlimit:10;" x1="156.455" y1="120.801" x2="156.455" y2="164.195"/>
			</g>
			<g>
				<polygon style="fill:#00A1BE;" points="66.744,171.083 107.277,194.15 196.094,142.934 196.094,139.934 155.627,120.283 
					66.744,168.083 				"/>
				<polygon style="fill:#B9EAF0;" points="66.744,168.083 107.277,191.15 196.094,139.934 155.627,117.283 				"/>
			</g>
			<g>
				<g>
					<g>
						<polygon style="fill:#00A1BE;" points="141.816,129.249 123.714,139.061 117.495,135.606 135.163,125.701 						"/>
						<polygon style="fill:#00A1BE;" points="123.714,139.061 123.714,152.669 117.495,149.04 117.495,135.606 						"/>
						<polygon style="fill:#BBB8CE;" points="117.495,138.734 117.495,144.606 123.714,148.061 123.714,142.189 						"/>
						<polygon style="fill:#B9EAF0;" points="141.816,129.249 123.714,139.061 123.714,152.669 141.816,142.387 						"/>
						<polygon style="fill:#EBEAF0;" points="123.714,142.192 123.714,148.049 141.816,138.238 141.816,132.381 						"/>
					</g>
					<g>
						<polygon style="fill:#00A1BE;" points="152.088,134.925 133.986,144.736 127.768,141.281 145.436,131.376 						"/>
						<polygon style="fill:#00A1BE;" points="133.986,144.736 133.986,158.344 127.768,154.715 127.768,141.281 						"/>
						<polygon style="fill:#BBB8CE;" points="127.768,144.409 127.768,150.282 133.986,153.736 133.986,147.864 						"/>
						<polygon style="fill:#B9EAF0;" points="152.088,134.925 133.986,144.736 133.986,158.344 152.088,148.062 						"/>
						<polygon style="fill:#EBEAF0;" points="133.986,147.867 133.986,153.725 152.089,143.914 152.089,138.056 						"/>
					</g>
					<g>
						<polygon style="fill:#00A1BE;" points="162.361,140.6 144.259,150.411 138.041,146.957 155.709,137.052 						"/>
						<polygon style="fill:#00A1BE;" points="144.259,150.411 144.259,164.019 138.041,160.39 138.041,146.957 						"/>
						<polygon style="fill:#BBB8CE;" points="138.041,150.085 138.041,155.957 144.259,159.411 144.259,153.539 						"/>
						<polygon style="fill:#B9EAF0;" points="162.361,140.6 144.259,150.411 144.259,164.019 162.361,153.737 						"/>
						<polygon style="fill:#EBEAF0;" points="144.259,153.542 144.259,159.4 162.361,149.589 162.361,143.731 						"/>
					</g>
				</g>
				<g>
					<path style="opacity:0.47;fill:#FFAD10;" d="M159.084,134.46c-1.931,1.115-5.062,1.115-6.993,0
						c-1.931-1.115-1.931-2.923,0-4.037c1.931-1.115,5.062-1.115,6.993,0C161.015,131.538,161.015,133.345,159.084,134.46z"/>
					<path style="opacity:0.64;fill:#FFCC85;" d="M152.091,119.652c1.931-1.115,5.062-1.115,6.993,0
						c0.966,0.558,1.448,1.288,1.448,2.019l0,0v10.771c0,0.731-0.483,1.461-1.448,2.019c-1.931,1.115-5.062,1.115-6.993,0
						c-0.966-0.558-1.448-1.288-1.448-2.019v-10.77l0,0C150.643,120.94,151.125,120.21,152.091,119.652z"/>
					<path style="fill:#FF5746;" d="M152.091,131.605c1.931,1.115,5.062,1.115,6.993,0c0.966-0.557,1.448-1.288,1.448-2.019v0
						v-6.738c-0.005,0-0.009,0.001-0.014,0.001c-0.06,0.68-0.534,1.35-1.434,1.87c-1.931,1.115-5.062,1.115-6.993,0
						c-0.897-0.518-1.372-1.186-1.436-1.864h-0.013v6.731C150.643,130.318,151.126,131.048,152.091,131.605z"/>
					<path style="fill:#380200;" d="M159.084,120.168c-1.931,1.115-5.062,1.115-6.993,0c-1.931-1.115-1.931-2.923,0-4.038
						c1.931-1.115,5.062-1.115,6.993,0C161.015,117.246,161.015,119.053,159.084,120.168z"/>
					<rect x="150.643" y="115.465" style="fill:#380200;" width="9.89" height="2.684"/>
					<path style="fill:#736374;" d="M159.084,117.484c-1.931,1.115-5.062,1.115-6.993,0c-1.931-1.115-1.931-2.923,0-4.037
						c1.931-1.115,5.062-1.115,6.993,0C161.015,114.562,161.015,116.369,159.084,117.484z"/>
					<path style="opacity:0.36;fill:#FFCC85;" d="M157.441,116.364c-1.023,0.591-2.683,0.591-3.706,0
						c-1.023-0.591-1.023-1.549,0-2.14c1.023-0.591,2.683-0.591,3.706,0C158.464,114.816,158.464,115.773,157.441,116.364z"/>
				</g>
				<g>
					<path style="fill:#FFAD10;" d="M174.826,142.604c-2.581,1.49-6.765,1.49-9.345,0c-2.581-1.49-2.581-3.906,0-5.396
						c2.581-1.49,6.765-1.49,9.345,0C177.407,138.698,177.407,141.114,174.826,142.604z"/>
					<path style="opacity:0.64;fill:#FFCC85;" d="M165.175,122.584c0.768-1.124,2.229-2.465,4.978-2.465s4.206,1.344,4.978,2.465
						c0.416,0.605,1.63,2.014,1.63,2.929v14.393c0,0.976-0.645,1.953-1.936,2.698c-2.581,1.49-6.765,1.49-9.345,0
						c-1.29-0.745-1.936-1.722-1.936-2.698v-14.393C163.545,124.598,164.81,123.119,165.175,122.584z"/>
					<path style="fill:#BBB8CE;" d="M165.481,138.789c2.581,1.49,6.765,1.49,9.345,0c1.29-0.745,1.936-1.721,1.936-2.698v0v-9.004
						c-0.007,0.001-0.013,0.002-0.019,0.002c-0.08,0.909-0.713,1.805-1.916,2.499c-2.581,1.49-6.765,1.49-9.345,0
						c-1.199-0.692-1.834-1.585-1.918-2.491h-0.017v8.995C163.546,137.068,164.191,138.044,165.481,138.789z"/>
					<g>
						<path style="fill:#380200;" d="M173.369,122.104c-1.776,1.025-4.655,1.025-6.431,0c-1.776-1.025-1.776-2.688,0-3.713
							c1.776-1.025,4.655-1.025,6.431,0C175.145,119.416,175.145,121.079,173.369,122.104z"/>
						<rect x="165.606" y="117.779" style="fill:#380200;" width="9.095" height="2.468"/>
						<path style="fill:#736374;" d="M173.369,119.636c-1.776,1.025-4.655,1.025-6.431,0c-1.776-1.025-1.776-2.688,0-3.713
							c1.776-1.025,4.655-1.025,6.431,0C175.145,116.948,175.145,118.61,173.369,119.636z"/>
						<path style="opacity:0.36;fill:#FFCC85;" d="M171.858,118.606c-0.941,0.543-2.467,0.543-3.408,0
							c-0.941-0.543-0.941-1.424,0-1.968c0.941-0.543,2.467-0.543,3.408,0C172.799,117.182,172.799,118.063,171.858,118.606z"/>
					</g>
				</g>
				<g>
					<g>
						<path style="opacity:0.47;fill:#FFFFFF;" d="M116.263,163.356c-2.581,1.49-6.765,1.49-9.345,0
							c-2.581-1.49-2.581-3.906,0-5.396c2.581-1.49,6.765-1.49,9.345,0C118.844,159.451,118.844,161.866,116.263,163.356z"/>
						<path style="opacity:0.47;fill:#FFFFFF;" d="M118.199,146.265h-13.216v14.393c0,0.977,0.645,1.953,1.935,2.698
							c2.581,1.49,6.765,1.49,9.345,0c1.29-0.745,1.936-1.721,1.936-2.698l0,0V146.265z"/>
						<path style="fill:#00A1BE;" d="M106.918,159.541c2.581,1.49,6.765,1.49,9.345,0c1.29-0.745,1.936-1.721,1.936-2.698v0v-9.004
							c-0.007,0.001-0.013,0.002-0.019,0.002c-0.08,0.909-0.713,1.805-1.916,2.499c-2.581,1.49-6.765,1.49-9.345,0
							c-1.199-0.692-1.834-1.585-1.918-2.491h-0.017v8.995C104.983,157.82,105.628,158.796,106.918,159.541z"/>
						<path style="fill:#00A1BE;" d="M116.263,148.963c-2.581,1.49-6.765,1.49-9.345,0c-2.581-1.49-2.581-3.906,0-5.396
							c2.581-1.49,6.765-1.49,9.345,0C118.844,145.057,118.844,147.473,116.263,148.963z"/>
						<path style="fill:#380200;" d="M116.263,144.257c-2.581,1.49-6.765,1.49-9.345,0c-2.581-1.49-2.581-3.906,0-5.396
							c2.581-1.49,6.765-1.49,9.345,0C118.844,140.352,118.844,142.767,116.263,144.257z"/>
						<rect x="104.982" y="137.973" style="fill:#380200;" width="13.216" height="3.587"/>
						<path style="fill:#736374;" d="M116.263,140.67c-2.581,1.49-6.765,1.49-9.345,0c-2.581-1.49-2.581-3.906,0-5.396
							c2.581-1.49,6.765-1.49,9.345,0C118.844,136.765,118.844,139.18,116.263,140.67z"/>
						<path style="opacity:0.36;fill:#FFCC85;" d="M114.067,139.174c-1.368,0.79-3.585,0.79-4.952,0c-1.368-0.79-1.368-2.07,0-2.859
							c1.368-0.79,3.585-0.79,4.952,0C115.434,137.104,115.434,138.384,114.067,139.174z"/>
					</g>
					<g>
						<path style="opacity:0.47;fill:#FFFFFF;" d="M130.829,171.781c-2.581,1.49-6.765,1.49-9.345,0
							c-2.581-1.49-2.581-3.906,0-5.396c2.581-1.49,6.765-1.49,9.345,0C133.41,167.875,133.41,170.291,130.829,171.781z"/>
						<path style="opacity:0.47;fill:#FFFFFF;" d="M132.765,154.69h-13.216v14.393c0,0.977,0.645,1.953,1.936,2.698
							c2.581,1.49,6.765,1.49,9.345,0c1.29-0.745,1.936-1.721,1.936-2.698l0,0V154.69z"/>
						<path style="fill:#00A1BE;" d="M121.484,167.966c2.581,1.49,6.765,1.49,9.345,0c1.29-0.745,1.936-1.721,1.936-2.698v0v-9.004
							c-0.007,0.001-0.013,0.001-0.019,0.002c-0.08,0.909-0.713,1.805-1.916,2.499c-2.581,1.49-6.765,1.49-9.345,0
							c-1.199-0.692-1.834-1.585-1.918-2.491h-0.017v8.995C119.549,166.245,120.194,167.221,121.484,167.966z"/>
						<path style="fill:#00A1BE;" d="M130.829,157.388c-2.581,1.49-6.765,1.49-9.345,0c-2.581-1.49-2.581-3.906,0-5.396
							c2.581-1.49,6.765-1.49,9.345,0C133.41,153.482,133.41,155.898,130.829,157.388z"/>
						<path style="fill:#380200;" d="M130.829,152.682c-2.581,1.49-6.765,1.49-9.345,0c-2.581-1.49-2.581-3.906,0-5.396
							c2.581-1.49,6.765-1.49,9.345,0C133.41,148.776,133.41,151.192,130.829,152.682z"/>
						<rect x="119.548" y="146.397" style="fill:#380200;" width="13.216" height="3.587"/>
						<path style="fill:#736374;" d="M130.829,149.095c-2.581,1.49-6.765,1.49-9.345,0c-2.581-1.49-2.581-3.906,0-5.396
							c2.581-1.49,6.765-1.49,9.345,0C133.41,145.189,133.41,147.605,130.829,149.095z"/>
						<path style="opacity:0.36;fill:#FFCC85;" d="M128.633,147.598c-1.368,0.79-3.585,0.79-4.952,0c-1.368-0.79-1.368-2.07,0-2.859
							c1.368-0.789,3.585-0.789,4.952,0C130,145.529,130,146.809,128.633,147.598z"/>
					</g>
				</g>
				<g>
					<g>
						<path style="fill:#B9EAF0;" d="M97.605,173.623c-2.581,1.49-6.765,1.49-9.345,0c-2.581-1.49-2.581-3.906,0-5.395
							c2.581-1.49,6.765-1.49,9.345,0C100.186,169.717,100.186,172.133,97.605,173.623z"/>
						<path style="fill:#00A1BE;" d="M88.26,169.807c2.581,1.49,6.765,1.49,9.345,0c1.29-0.745,1.935-1.721,1.935-2.698v0v-9.004
							c-0.007,0-0.013,0.001-0.019,0.002c-0.08,0.909-0.713,1.805-1.916,2.499c-2.581,1.49-6.765,1.49-9.345,0
							c-1.199-0.692-1.834-1.585-1.918-2.491h-0.017v8.995C86.325,168.087,86.97,169.063,88.26,169.807z"/>
						<path style="opacity:0.47;fill:#FFFFFF;" d="M88.26,153.834c2.581-1.49,6.765-1.49,9.345,0
							c1.29,0.745,1.936,1.721,1.935,2.698l0,0v14.393c0,0.976-0.645,1.953-1.935,2.698c-2.581,1.49-6.765,1.49-9.345,0
							c-1.29-0.745-1.936-1.722-1.935-2.698v-14.392C86.324,155.555,86.969,154.579,88.26,153.834z"/>
						<g>
							<path style="fill:#380200;" d="M96.564,154.978c-2.006,1.158-5.257,1.158-7.263,0c-2.006-1.158-2.006-3.035,0-4.193
								c2.006-1.158,5.257-1.158,7.263,0C98.569,151.943,98.569,153.821,96.564,154.978z"/>
							<rect x="87.797" y="150.094" style="fill:#380200;" width="10.271" height="2.787"/>
							<path style="fill:#736374;" d="M96.564,152.191c-2.006,1.158-5.257,1.158-7.263,0c-2.006-1.158-2.006-3.035,0-4.193
								c2.006-1.158,5.257-1.158,7.263,0C98.569,149.156,98.569,151.033,96.564,152.191z"/>
							<path style="opacity:0.36;fill:#FFCC85;" d="M94.857,151.028c-1.063,0.613-2.786,0.613-3.849,0
								c-1.063-0.614-1.063-1.609,0-2.222c1.063-0.613,2.786-0.613,3.849,0C95.92,149.419,95.92,150.414,94.857,151.028z"/>
						</g>
					</g>
				</g>
			</g>
		</g>
		<g>
			<g>
				
					<linearGradient id="SVGID_00000075152907000989341940000008134297815375036803_" gradientUnits="userSpaceOnUse" x1="435.7825" y1="258.9612" x2="450.4158" y2="281.9379" gradientTransform="matrix(-1 0 0 1 720.4223 0)">
					<stop  offset="0" style="stop-color:#CBE4FE"/>
					<stop  offset="1" style="stop-color:#CBE4FE;stop-opacity:0"/>
				</linearGradient>
				<polygon style="fill:url(#SVGID_00000075152907000989341940000008134297815375036803_);" points="341.814,293.911 
					309.986,312.398 208.502,253.787 240.655,236.437 				"/>
				<g>
					<polygon style="fill:#9593B5;" points="341.814,101.897 341.814,293.911 240.655,236.437 240.655,44.423 					"/>
					<polygon style="fill:#BBB8CE;" points="341.814,293.911 348.251,290.314 348.251,98.59 341.814,101.897 					"/>
					<polygon style="fill:#EBEAF0;" points="348.251,98.59 247.533,41.025 240.655,44.423 341.814,101.897 					"/>
				</g>
				<g>
					<polygon style="fill:#EBEAF0;" points="341.814,136.141 312.495,152.729 211.484,95.029 240.802,78.441 					"/>
					<polygon style="fill:#9593B5;" points="312.495,152.729 312.495,160.444 341.814,143.856 341.814,136.141 					"/>
					<polygon style="fill:#BBB8CE;" points="312.495,160.444 211.484,102.034 211.484,95.029 312.495,152.729 					"/>
				</g>
				<g>
					<g>
						<g>
							<polygon style="fill:#00A1BE;" points="259.08,84.502 277.182,94.313 283.401,90.859 265.732,80.954 							"/>
							<polygon style="fill:#00A1BE;" points="277.182,94.313 277.182,107.921 283.401,104.292 283.401,90.859 							"/>
							<polygon style="fill:#BBB8CE;" points="283.401,93.987 283.401,99.859 277.182,103.314 277.182,97.441 							"/>
							<polygon style="fill:#B9EAF0;" points="259.08,84.502 277.182,94.313 277.182,107.921 259.08,97.639 							"/>
							<polygon style="fill:#EBEAF0;" points="277.182,97.445 277.182,103.302 259.08,93.491 259.08,87.634 							"/>
						</g>
						<g>
							<polygon style="fill:#00A1BE;" points="248.807,90.177 266.91,99.989 273.128,96.534 255.46,86.629 							"/>
							<polygon style="fill:#00A1BE;" points="266.91,99.989 266.91,113.597 273.128,109.968 273.128,96.534 							"/>
							<polygon style="fill:#BBB8CE;" points="273.128,99.662 273.128,105.534 266.91,108.989 266.91,103.117 							"/>
							<polygon style="fill:#B9EAF0;" points="248.807,90.177 266.91,99.989 266.91,113.597 248.807,103.314 							"/>
							<polygon style="fill:#EBEAF0;" points="266.91,103.12 266.91,108.977 248.807,99.166 248.807,93.309 							"/>
						</g>
						<g>
							<polygon style="fill:#00A1BE;" points="238.535,95.853 256.637,105.664 262.855,102.209 245.187,92.304 							"/>
							<polygon style="fill:#00A1BE;" points="256.637,105.664 256.637,119.272 262.855,115.643 262.855,102.209 							"/>
							<polygon style="fill:#BBB8CE;" points="262.855,105.337 262.855,111.21 256.637,114.664 256.637,108.792 							"/>
							<polygon style="fill:#B9EAF0;" points="238.535,95.853 256.637,105.664 256.637,119.272 238.535,108.99 							"/>
							<polygon style="fill:#EBEAF0;" points="256.637,108.795 256.637,114.653 238.535,104.842 238.535,98.984 							"/>
						</g>
					</g>
					<g>
						<path style="opacity:0.47;fill:#FFAD10;" d="M241.812,89.713c1.931,1.115,5.062,1.115,6.993,0
							c1.931-1.115,1.931-2.923,0-4.037c-1.931-1.115-5.062-1.115-6.993,0C239.881,86.79,239.881,88.598,241.812,89.713z"/>
						<path style="opacity:0.64;fill:#FFCC85;" d="M248.805,74.905c-1.931-1.115-5.062-1.115-6.993,0
							c-0.965,0.558-1.448,1.288-1.448,2.019l0,0v10.771c0,0.731,0.483,1.461,1.448,2.019c1.931,1.115,5.062,1.115,6.993,0
							c0.966-0.557,1.448-1.288,1.448-2.019v-10.77l0,0C250.253,76.193,249.77,75.462,248.805,74.905z"/>
						<path style="fill:#FF5746;" d="M248.805,86.858c-1.931,1.115-5.062,1.115-6.993,0c-0.965-0.558-1.448-1.288-1.448-2.019v0
							v-6.738c0.005,0,0.009,0.001,0.014,0.001c0.06,0.68,0.534,1.35,1.434,1.87c1.931,1.115,5.062,1.115,6.993,0
							c0.897-0.518,1.372-1.186,1.436-1.864h0.013v6.731C250.253,85.571,249.77,86.301,248.805,86.858z"/>
						<path style="fill:#380200;" d="M241.812,75.421c1.931,1.115,5.062,1.115,6.993,0c1.931-1.115,1.931-2.923,0-4.038
							c-1.931-1.115-5.062-1.115-6.993,0C239.881,72.498,239.881,74.306,241.812,75.421z"/>
						
							<rect x="240.363" y="70.718" transform="matrix(-1 -1.224647e-16 1.224647e-16 -1 490.6167 144.1204)" style="fill:#380200;" width="9.89" height="2.684"/>
						<path style="fill:#736374;" d="M241.812,72.737c1.931,1.115,5.062,1.115,6.993,0c1.931-1.115,1.931-2.923,0-4.037
							c-1.931-1.115-5.062-1.115-6.993,0C239.881,69.814,239.881,71.622,241.812,72.737z"/>
						<path style="opacity:0.36;fill:#FFCC85;" d="M243.455,71.617c1.023,0.591,2.682,0.591,3.706,0c1.023-0.591,1.023-1.549,0-2.14
							c-1.023-0.591-2.683-0.591-3.706,0C242.432,70.068,242.432,71.026,243.455,71.617z"/>
					</g>
					<g>
						<path style="opacity:0.47;fill:#FFAD10;" d="M314.74,132.403c1.931,1.115,5.062,1.115,6.993,0
							c1.931-1.115,1.931-2.923,0-4.037c-1.931-1.115-5.062-1.115-6.993,0C312.809,129.481,312.809,131.288,314.74,132.403z"/>
						<path style="opacity:0.64;fill:#FFCC85;" d="M321.733,117.595c-1.931-1.115-5.062-1.115-6.993,0
							c-0.966,0.557-1.448,1.288-1.448,2.019l0,0v10.771c0,0.731,0.483,1.461,1.448,2.019c1.931,1.115,5.062,1.115,6.993,0
							c0.966-0.558,1.448-1.288,1.448-2.019v-10.77l0,0C323.182,118.883,322.699,118.153,321.733,117.595z"/>
						<path style="fill:#FF5746;" d="M321.733,129.548c-1.931,1.115-5.062,1.115-6.993,0c-0.966-0.557-1.448-1.288-1.448-2.019v0
							v-6.738c0.005,0,0.009,0.001,0.014,0.001c0.06,0.68,0.534,1.35,1.434,1.87c1.931,1.115,5.062,1.115,6.993,0
							c0.897-0.518,1.372-1.186,1.436-1.864h0.013v6.731C323.181,128.261,322.698,128.991,321.733,129.548z"/>
						<path style="fill:#380200;" d="M314.74,118.111c1.931,1.115,5.062,1.115,6.993,0c1.931-1.115,1.931-2.923,0-4.038
							c-1.931-1.115-5.062-1.115-6.993,0C312.809,115.189,312.809,116.996,314.74,118.111z"/>
						
							<rect x="313.292" y="113.409" transform="matrix(-1 -1.224647e-16 1.224647e-16 -1 636.4734 229.5012)" style="fill:#380200;" width="9.89" height="2.684"/>
						<path style="fill:#736374;" d="M314.74,115.427c1.931,1.115,5.062,1.115,6.993,0c1.931-1.115,1.931-2.923,0-4.037
							c-1.931-1.115-5.062-1.115-6.993,0C312.809,112.505,312.809,114.312,314.74,115.427z"/>
						<path style="opacity:0.36;fill:#FFCC85;" d="M316.384,114.307c1.023,0.591,2.683,0.591,3.706,0
							c1.023-0.591,1.023-1.549,0-2.14c-1.023-0.591-2.683-0.591-3.706,0C315.36,112.759,315.36,113.717,316.384,114.307z"/>
					</g>
					<g>
						<path style="fill:#FFAD10;" d="M226.07,97.856c2.581,1.49,6.765,1.49,9.345,0c2.581-1.49,2.581-3.906,0-5.396
							c-2.581-1.49-6.765-1.49-9.345,0C223.489,93.951,223.489,96.367,226.07,97.856z"/>
						<path style="opacity:0.64;fill:#FFCC85;" d="M235.721,77.837c-0.768-1.124-2.229-2.465-4.978-2.465
							c-2.749,0-4.206,1.344-4.978,2.465c-0.416,0.605-1.63,2.014-1.63,2.929v14.393c0,0.976,0.645,1.953,1.935,2.698
							c2.581,1.49,6.765,1.49,9.345,0c1.29-0.745,1.936-1.722,1.936-2.698V80.765C237.351,79.851,236.086,78.372,235.721,77.837z"/>
						<path style="fill:#BBB8CE;" d="M235.415,94.041c-2.581,1.49-6.765,1.49-9.345,0c-1.29-0.745-1.935-1.721-1.935-2.698v0V82.34
							c0.007,0.001,0.013,0.002,0.019,0.002c0.08,0.909,0.713,1.805,1.916,2.499c2.581,1.49,6.765,1.49,9.345,0
							c1.199-0.692,1.834-1.585,1.918-2.491h0.017v8.995C237.35,92.321,236.705,93.297,235.415,94.041z"/>
						<g>
							<path style="fill:#380200;" d="M227.527,77.357c1.776,1.025,4.655,1.025,6.431,0c1.776-1.025,1.776-2.688,0-3.713
								s-4.655-1.025-6.431,0C225.751,74.669,225.751,76.332,227.527,77.357z"/>
							
								<rect x="226.195" y="73.032" transform="matrix(-1 -1.224647e-16 1.224647e-16 -1 461.4847 148.5323)" style="fill:#380200;" width="9.095" height="2.468"/>
							<path style="fill:#736374;" d="M227.527,74.889c1.776,1.025,4.655,1.025,6.431,0c1.776-1.025,1.776-2.688,0-3.713
								c-1.776-1.025-4.655-1.025-6.431,0C225.751,72.201,225.751,73.863,227.527,74.889z"/>
							<path style="opacity:0.36;fill:#FFCC85;" d="M229.038,73.859c0.941,0.543,2.467,0.543,3.408,0
								c0.941-0.543,0.941-1.424,0-1.968c-0.941-0.543-2.467-0.543-3.408,0C228.097,72.434,228.097,73.315,229.038,73.859z"/>
						</g>
					</g>
					<g>
						<g>
							<polygon style="fill:#00A1BE;" points="286.351,100.16 304.453,109.971 310.671,106.516 293.003,96.611 							"/>
							<polygon style="fill:#00A1BE;" points="304.453,109.971 304.453,123.579 310.671,119.95 310.671,106.516 							"/>
							<polygon style="fill:#BBB8CE;" points="310.671,109.644 310.671,115.517 304.453,118.971 304.453,113.099 							"/>
							<polygon style="fill:#B9EAF0;" points="286.351,100.16 304.453,109.971 304.453,123.579 286.351,113.297 							"/>
							<polygon style="fill:#EBEAF0;" points="304.453,113.102 304.453,118.96 286.351,109.149 286.351,103.291 							"/>
						</g>
						<g>
							<polygon style="fill:#00A1BE;" points="276.078,105.835 294.18,115.646 300.398,112.191 282.73,102.287 							"/>
							<polygon style="fill:#00A1BE;" points="294.18,115.646 294.18,129.254 300.398,125.625 300.398,112.191 							"/>
							<polygon style="fill:#BBB8CE;" points="300.398,115.32 300.398,121.192 294.18,124.646 294.18,118.774 							"/>
							<polygon style="fill:#B9EAF0;" points="276.078,105.835 294.18,115.646 294.18,129.254 276.078,118.972 							"/>
							<polygon style="fill:#EBEAF0;" points="294.18,118.777 294.18,124.635 276.078,114.824 276.078,108.966 							"/>
						</g>
						<g>
							<polygon style="fill:#00A1BE;" points="265.805,111.51 283.907,121.321 290.126,117.867 272.457,107.962 							"/>
							<polygon style="fill:#00A1BE;" points="283.907,121.321 283.907,134.929 290.126,131.3 290.126,117.867 							"/>
							<polygon style="fill:#BBB8CE;" points="290.126,120.995 290.126,126.867 283.907,130.322 283.907,124.449 							"/>
							<polygon style="fill:#B9EAF0;" points="265.805,111.51 283.907,121.321 283.907,134.929 265.805,124.647 							"/>
							<polygon style="fill:#EBEAF0;" points="283.907,124.453 283.907,130.31 265.805,120.499 265.805,114.642 							"/>
						</g>
					</g>
					<g>
						<polygon style="fill:#00A1BE;" points="289.966,125.288 308.069,135.1 314.287,131.645 296.619,121.74 						"/>
						<polygon style="fill:#00A1BE;" points="308.069,135.1 308.069,148.708 314.287,145.079 314.287,131.645 						"/>
						<polygon style="fill:#BBB8CE;" points="314.287,134.773 314.287,140.645 308.069,144.1 308.069,138.228 						"/>
						<polygon style="fill:#B9EAF0;" points="289.966,125.288 308.069,135.1 308.069,148.708 289.966,138.426 						"/>
						<polygon style="fill:#EBEAF0;" points="308.069,138.231 308.069,144.089 289.966,134.277 289.966,128.42 						"/>
					</g>
				</g>
				<g>
					<polygon style="fill:#EBEAF0;" points="341.814,224.835 312.495,241.423 211.484,183.723 240.802,167.135 					"/>
					<polygon style="fill:#9593B5;" points="312.495,241.423 312.495,249.138 341.814,232.55 341.814,224.835 					"/>
					<polygon style="fill:#BBB8CE;" points="312.495,249.138 211.484,190.728 211.484,183.723 312.495,241.423 					"/>
				</g>
				<g>
					<g>
						<g>
							<polygon style="fill:#00A1BE;" points="259.08,173.196 277.182,183.007 283.401,179.552 265.732,169.647 							"/>
							<polygon style="fill:#00A1BE;" points="277.182,183.007 277.182,196.615 283.401,192.986 283.401,179.552 							"/>
							<polygon style="fill:#BBB8CE;" points="283.401,182.68 283.401,188.553 277.182,192.007 277.182,186.135 							"/>
							<polygon style="fill:#B9EAF0;" points="259.08,173.196 277.182,183.007 277.182,196.615 259.08,186.333 							"/>
							<polygon style="fill:#EBEAF0;" points="277.182,186.138 277.182,191.996 259.08,182.185 259.08,176.327 							"/>
						</g>
						<g>
							<polygon style="fill:#00A1BE;" points="248.807,178.871 266.91,188.682 273.128,185.228 255.46,175.323 							"/>
							<polygon style="fill:#00A1BE;" points="266.91,188.682 266.91,202.29 273.128,198.661 273.128,185.228 							"/>
							<polygon style="fill:#BBB8CE;" points="273.128,188.355 273.128,194.228 266.91,197.682 266.91,191.81 							"/>
							<polygon style="fill:#B9EAF0;" points="248.807,178.871 266.91,188.682 266.91,202.29 248.807,192.008 							"/>
							<polygon style="fill:#EBEAF0;" points="266.91,191.814 266.91,197.671 248.807,187.86 248.807,182.002 							"/>
						</g>
						<g>
							<polygon style="fill:#00A1BE;" points="238.535,184.546 256.637,194.357 262.855,190.903 245.187,180.998 							"/>
							<polygon style="fill:#00A1BE;" points="256.637,194.357 256.637,207.965 262.855,204.337 262.855,190.903 							"/>
							<polygon style="fill:#BBB8CE;" points="262.855,194.031 262.855,199.903 256.637,203.358 256.637,197.485 							"/>
							<polygon style="fill:#B9EAF0;" points="238.535,184.546 256.637,194.357 256.637,207.965 238.535,197.683 							"/>
							<polygon style="fill:#EBEAF0;" points="256.637,197.489 256.637,203.346 238.535,193.535 238.535,187.678 							"/>
						</g>
					</g>
					<g>
						<path style="opacity:0.47;fill:#FFAD10;" d="M241.812,178.407c1.931,1.115,5.062,1.115,6.993,0
							c1.931-1.115,1.931-2.923,0-4.038c-1.931-1.115-5.062-1.115-6.993,0C239.881,175.484,239.881,177.292,241.812,178.407z"/>
						<path style="opacity:0.64;fill:#FFCC85;" d="M248.805,163.598c-1.931-1.115-5.062-1.115-6.993,0
							c-0.965,0.557-1.448,1.288-1.448,2.019l0,0v10.771c0,0.731,0.483,1.461,1.448,2.019c1.931,1.115,5.062,1.115,6.993,0
							c0.966-0.557,1.448-1.288,1.448-2.019v-10.77l0,0C250.253,164.887,249.77,164.156,248.805,163.598z"/>
						<path style="fill:#FF5746;" d="M248.805,175.552c-1.931,1.115-5.062,1.115-6.993,0c-0.965-0.558-1.448-1.288-1.448-2.019v0
							v-6.738c0.005,0,0.009,0.001,0.014,0.001c0.06,0.68,0.534,1.35,1.434,1.87c1.931,1.115,5.062,1.115,6.993,0
							c0.897-0.518,1.372-1.186,1.436-1.864h0.013v6.731C250.253,174.264,249.77,174.994,248.805,175.552z"/>
						<path style="fill:#380200;" d="M241.812,164.115c1.931,1.115,5.062,1.115,6.993,0c1.931-1.115,1.931-2.923,0-4.038
							c-1.931-1.115-5.062-1.115-6.993,0C239.881,161.192,239.881,163,241.812,164.115z"/>
						
							<rect x="240.363" y="159.412" transform="matrix(-1 -1.224647e-16 1.224647e-16 -1 490.6167 321.5076)" style="fill:#380200;" width="9.89" height="2.684"/>
						<path style="fill:#736374;" d="M241.812,161.43c1.931,1.115,5.062,1.115,6.993,0c1.931-1.115,1.931-2.923,0-4.037
							c-1.931-1.115-5.062-1.115-6.993,0C239.881,158.508,239.881,160.316,241.812,161.43z"/>
						<path style="opacity:0.36;fill:#FFCC85;" d="M243.455,160.311c1.023,0.591,2.682,0.591,3.706,0
							c1.023-0.591,1.023-1.549,0-2.14c-1.023-0.591-2.683-0.591-3.706,0C242.432,158.762,242.432,159.72,243.455,160.311z"/>
					</g>
					<g>
						<path style="opacity:0.47;fill:#FFAD10;" d="M314.74,221.097c1.931,1.115,5.062,1.115,6.993,0
							c1.931-1.115,1.931-2.923,0-4.038c-1.931-1.115-5.062-1.115-6.993,0C312.809,218.174,312.809,219.982,314.74,221.097z"/>
						<path style="opacity:0.64;fill:#FFCC85;" d="M321.733,206.289c-1.931-1.115-5.062-1.115-6.993,0
							c-0.966,0.558-1.448,1.288-1.448,2.019l0,0v10.771c0,0.731,0.483,1.461,1.448,2.019c1.931,1.115,5.062,1.115,6.993,0
							c0.966-0.557,1.448-1.288,1.448-2.019v-10.77l0,0C323.182,207.577,322.699,206.846,321.733,206.289z"/>
						<path style="fill:#FF5746;" d="M321.733,218.242c-1.931,1.115-5.062,1.115-6.993,0c-0.966-0.558-1.448-1.288-1.448-2.019v0
							v-6.738c0.005,0,0.009,0.001,0.014,0.001c0.06,0.68,0.534,1.35,1.434,1.87c1.931,1.115,5.062,1.115,6.993,0
							c0.897-0.518,1.372-1.186,1.436-1.864h0.013v6.731C323.181,216.954,322.698,217.685,321.733,218.242z"/>
						<path style="fill:#380200;" d="M314.74,206.805c1.931,1.115,5.062,1.115,6.993,0c1.931-1.115,1.931-2.923,0-4.038
							c-1.931-1.115-5.062-1.115-6.993,0C312.809,203.882,312.809,205.69,314.74,206.805z"/>
						
							<rect x="313.292" y="202.102" transform="matrix(-1 -1.224647e-16 1.224647e-16 -1 636.4734 406.8884)" style="fill:#380200;" width="9.89" height="2.684"/>
						<path style="fill:#736374;" d="M314.74,204.121c1.931,1.115,5.062,1.115,6.993,0c1.931-1.115,1.931-2.923,0-4.037
							c-1.931-1.115-5.062-1.115-6.993,0C312.809,201.198,312.809,203.006,314.74,204.121z"/>
						<path style="opacity:0.36;fill:#FFCC85;" d="M316.384,203.001c1.023,0.591,2.683,0.591,3.706,0
							c1.023-0.591,1.023-1.549,0-2.14c-1.023-0.591-2.683-0.591-3.706,0C315.36,201.452,315.36,202.41,316.384,203.001z"/>
					</g>
					<g>
						<path style="fill:#FFAD10;" d="M226.07,186.55c2.581,1.49,6.765,1.49,9.345,0c2.581-1.49,2.581-3.906,0-5.396
							c-2.581-1.49-6.765-1.49-9.345,0C223.489,182.645,223.489,185.06,226.07,186.55z"/>
						<path style="opacity:0.64;fill:#FFCC85;" d="M235.721,166.53c-0.768-1.124-2.229-2.465-4.978-2.465
							c-2.749,0-4.206,1.344-4.978,2.465c-0.416,0.605-1.63,2.014-1.63,2.929v14.393c0,0.976,0.645,1.953,1.935,2.698
							c2.581,1.49,6.765,1.49,9.345,0c1.29-0.745,1.936-1.722,1.936-2.698v-14.393C237.351,168.544,236.086,167.065,235.721,166.53z
							"/>
						<path style="fill:#BBB8CE;" d="M235.415,182.735c-2.581,1.49-6.765,1.49-9.345,0c-1.29-0.745-1.935-1.721-1.935-2.698v0
							v-9.004c0.007,0.001,0.013,0.001,0.019,0.002c0.08,0.909,0.713,1.805,1.916,2.499c2.581,1.49,6.765,1.49,9.345,0
							c1.199-0.692,1.834-1.585,1.918-2.491h0.017v8.995C237.35,181.014,236.705,181.99,235.415,182.735z"/>
						<g>
							<path style="fill:#380200;" d="M227.527,166.051c1.776,1.025,4.655,1.025,6.431,0c1.776-1.025,1.776-2.688,0-3.713
								s-4.655-1.025-6.431,0C225.751,163.363,225.751,165.025,227.527,166.051z"/>
							
								<rect x="226.195" y="161.725" transform="matrix(-1 -1.224647e-16 1.224647e-16 -1 461.4847 325.9195)" style="fill:#380200;" width="9.095" height="2.468"/>
							<path style="fill:#736374;" d="M227.527,163.582c1.776,1.025,4.655,1.025,6.431,0c1.776-1.025,1.776-2.688,0-3.713
								c-1.776-1.025-4.655-1.025-6.431,0C225.751,160.894,225.751,162.557,227.527,163.582z"/>
							<path style="opacity:0.36;fill:#FFCC85;" d="M229.038,162.552c0.941,0.543,2.467,0.543,3.408,0
								c0.941-0.543,0.941-1.424,0-1.968c-0.941-0.543-2.467-0.543-3.408,0C228.097,161.128,228.097,162.009,229.038,162.552z"/>
						</g>
					</g>
					<g>
						<g>
							<polygon style="fill:#00A1BE;" points="286.351,188.853 304.453,198.664 310.671,195.21 293.003,185.305 							"/>
							<polygon style="fill:#00A1BE;" points="304.453,198.664 304.453,212.273 310.671,208.643 310.671,195.21 							"/>
							<polygon style="fill:#BBB8CE;" points="310.671,198.338 310.671,204.21 304.453,207.665 304.453,201.792 							"/>
							<polygon style="fill:#B9EAF0;" points="286.351,188.853 304.453,198.664 304.453,212.273 286.351,201.99 							"/>
							<polygon style="fill:#EBEAF0;" points="304.453,201.796 304.453,207.653 286.351,197.842 286.351,191.985 							"/>
						</g>
						<g>
							<polygon style="fill:#00A1BE;" points="276.078,194.529 294.18,204.34 300.398,200.885 282.73,190.98 							"/>
							<polygon style="fill:#00A1BE;" points="294.18,204.34 294.18,217.948 300.398,214.319 300.398,200.885 							"/>
							<polygon style="fill:#BBB8CE;" points="300.398,204.013 300.398,209.885 294.18,213.34 294.18,207.468 							"/>
							<polygon style="fill:#B9EAF0;" points="276.078,194.529 294.18,204.34 294.18,217.948 276.078,207.666 							"/>
							<polygon style="fill:#EBEAF0;" points="294.18,207.471 294.18,213.329 276.078,203.518 276.078,197.66 							"/>
						</g>
						<g>
							<polygon style="fill:#00A1BE;" points="265.805,200.204 283.907,210.015 290.126,206.56 272.457,196.656 							"/>
							<polygon style="fill:#00A1BE;" points="283.907,210.015 283.907,223.623 290.126,219.994 290.126,206.56 							"/>
							<polygon style="fill:#BBB8CE;" points="290.126,209.688 290.126,215.561 283.907,219.015 283.907,213.143 							"/>
							<polygon style="fill:#B9EAF0;" points="265.805,200.204 283.907,210.015 283.907,223.623 265.805,213.341 							"/>
							<polygon style="fill:#EBEAF0;" points="283.907,213.146 283.907,219.004 265.805,209.193 265.805,203.335 							"/>
						</g>
					</g>
					<g>
						<polygon style="fill:#00A1BE;" points="289.966,213.982 308.069,223.793 314.287,220.339 296.619,210.434 						"/>
						<polygon style="fill:#00A1BE;" points="308.069,223.793 308.069,237.401 314.287,233.772 314.287,220.339 						"/>
						<polygon style="fill:#BBB8CE;" points="314.287,223.467 314.287,229.339 308.069,232.794 308.069,226.921 						"/>
						<polygon style="fill:#B9EAF0;" points="289.966,213.982 308.069,223.793 308.069,237.401 289.966,227.119 						"/>
						<polygon style="fill:#EBEAF0;" points="308.069,226.925 308.069,232.782 289.966,222.971 289.966,217.113 						"/>
					</g>
				</g>
			</g>
			<g>
				
					<linearGradient id="SVGID_00000008137970695591167390000010261478300292677255_" gradientUnits="userSpaceOnUse" x1="333.6558" y1="317.4673" x2="347.3787" y2="339.0146" gradientTransform="matrix(-1 0 0 1 720.4223 0)">
					<stop  offset="0" style="stop-color:#CBE4FE"/>
					<stop  offset="1" style="stop-color:#CBE4FE;stop-opacity:0"/>
				</linearGradient>
				<polygon style="fill:url(#SVGID_00000008137970695591167390000010261478300292677255_);" points="426.935,341.678 
					395.108,360.165 328.814,321.18 360.967,303.83 				"/>
				<g>
					<polygon style="fill:#9593B5;" points="426.935,149.664 426.935,341.678 360.967,303.83 360.967,111.816 					"/>
					<polygon style="fill:#BBB8CE;" points="426.935,341.678 433.373,338.081 433.373,146.357 426.935,149.664 					"/>
					<polygon style="fill:#EBEAF0;" points="433.373,146.357 367.844,108.418 360.967,111.816 426.935,149.664 					"/>
				</g>
				<g>
					<polygon style="fill:#EBEAF0;" points="426.935,183.908 397.617,200.496 331.796,162.422 361.114,145.834 					"/>
					<polygon style="fill:#9593B5;" points="397.617,200.496 397.617,208.211 426.935,191.623 426.935,183.908 					"/>
					<polygon style="fill:#BBB8CE;" points="397.617,208.211 331.796,169.427 331.796,162.422 397.617,200.496 					"/>
				</g>
				<g>
					<g>
						<polygon style="fill:#FF5746;" points="352.926,125.56 371.028,135.371 377.247,131.916 359.578,122.011 						"/>
						<polygon style="fill:#EC9227;" points="371.028,135.371 371.028,163.494 377.247,159.865 377.247,131.916 						"/>
						<polygon style="fill:#BBB8CE;" points="377.247,136.762 377.247,147.24 371.028,150.694 371.028,140.216 						"/>
						<polygon style="fill:#EC9227;" points="352.926,125.56 371.028,135.371 371.028,163.494 352.926,153.211 						"/>
						<polygon style="fill:#EBEAF0;" points="371.028,140.22 371.028,150.683 352.926,140.872 352.926,130.409 						"/>
					</g>
					<g>
						<polygon style="fill:#FF5746;" points="341.499,135.047 359.601,144.858 365.819,141.403 348.151,131.498 						"/>
						<polygon style="fill:#EC9227;" points="359.601,144.858 359.601,172.98 365.819,169.352 365.819,141.403 						"/>
						<polygon style="fill:#BBB8CE;" points="365.819,146.249 365.819,156.726 359.601,160.181 359.601,149.703 						"/>
						<polygon style="fill:#EC9227;" points="341.499,135.047 359.601,144.858 359.601,172.98 341.499,162.698 						"/>
						<polygon style="fill:#EBEAF0;" points="359.601,149.707 359.601,160.17 341.499,150.359 341.499,139.895 						"/>
					</g>
					<g>
						<g>
							<path style="fill:#FFAD10;" d="M381.083,169.808c2.581,1.49,6.765,1.49,9.345,0c2.581-1.49,2.581-3.906,0-5.396
								c-2.581-1.49-6.765-1.49-9.345,0C378.503,165.902,378.503,168.318,381.083,169.808z"/>
							<path style="opacity:0.64;fill:#FFCC85;" d="M379.148,152.717h13.216v14.393c0,0.977-0.645,1.953-1.935,2.698
								c-2.581,1.49-6.765,1.49-9.345,0c-1.29-0.745-1.935-1.721-1.935-2.698l0,0V152.717z"/>
							<path style="fill:#FF5746;" d="M390.429,165.993c-2.581,1.49-6.765,1.49-9.345,0c-1.29-0.745-1.935-1.721-1.935-2.698v0
								v-9.004c0.006,0.001,0.013,0.001,0.019,0.002c0.08,0.909,0.713,1.805,1.916,2.499c2.581,1.49,6.765,1.49,9.345,0
								c1.199-0.692,1.834-1.585,1.918-2.491h0.017v8.995C392.364,164.272,391.719,165.248,390.429,165.993z"/>
							<path style="fill:#FFAD10;" d="M381.083,155.415c2.581,1.49,6.765,1.49,9.345,0c2.581-1.49,2.581-3.906,0-5.396
								c-2.581-1.49-6.765-1.49-9.345,0C378.503,151.509,378.503,153.925,381.083,155.415z"/>
							<path style="fill:#380200;" d="M381.083,150.709c2.581,1.49,6.765,1.49,9.345,0c2.581-1.49,2.581-3.906,0-5.396
								c-2.581-1.49-6.765-1.49-9.345,0C378.503,146.803,378.503,149.219,381.083,150.709z"/>
							
								<rect x="379.148" y="144.424" transform="matrix(-1 -1.224647e-16 1.224647e-16 -1 771.5124 292.4356)" style="fill:#380200;" width="13.216" height="3.587"/>
							<path style="fill:#736374;" d="M381.083,147.122c2.581,1.49,6.765,1.49,9.345,0c2.581-1.49,2.581-3.906,0-5.396
								c-2.581-1.49-6.765-1.49-9.345,0C378.503,143.217,378.503,145.632,381.083,147.122z"/>
							<path style="opacity:0.36;fill:#FFCC85;" d="M383.28,145.626c1.368,0.79,3.585,0.79,4.952,0c1.368-0.789,1.368-2.07,0-2.859
								c-1.367-0.789-3.585-0.789-4.952,0C381.912,143.556,381.912,144.836,383.28,145.626z"/>
						</g>
						<g>
							<path style="fill:#FFAD10;" d="M366.517,178.233c2.581,1.49,6.765,1.49,9.345,0c2.581-1.49,2.581-3.906,0-5.395
								c-2.581-1.49-6.765-1.49-9.345,0C363.937,174.327,363.937,176.743,366.517,178.233z"/>
							<path style="opacity:0.64;fill:#FFCC85;" d="M364.582,161.142h13.216v14.393c0,0.977-0.645,1.953-1.936,2.698
								c-2.581,1.49-6.765,1.49-9.345,0c-1.29-0.745-1.935-1.721-1.935-2.698l0,0V161.142z"/>
							<path style="fill:#FF5746;" d="M375.863,174.418c-2.581,1.49-6.765,1.49-9.345,0c-1.29-0.745-1.935-1.721-1.935-2.698v0
								v-9.004c0.007,0.001,0.013,0.001,0.019,0.002c0.08,0.909,0.713,1.805,1.916,2.499c2.581,1.49,6.765,1.49,9.345,0
								c1.199-0.692,1.834-1.585,1.918-2.491h0.017v8.995C377.798,172.697,377.153,173.673,375.863,174.418z"/>
							<path style="fill:#FFAD10;" d="M366.517,163.84c2.581,1.49,6.765,1.49,9.345,0c2.581-1.49,2.581-3.906,0-5.396
								c-2.581-1.49-6.765-1.49-9.345,0C363.937,159.934,363.937,162.35,366.517,163.84z"/>
							<path style="fill:#380200;" d="M366.517,159.134c2.581,1.49,6.765,1.49,9.345,0c2.581-1.49,2.581-3.906,0-5.396
								c-2.581-1.49-6.765-1.49-9.345,0C363.937,155.228,363.937,157.644,366.517,159.134z"/>
							
								<rect x="364.582" y="152.849" transform="matrix(-1 -1.224647e-16 1.224647e-16 -1 742.3804 309.2852)" style="fill:#380200;" width="13.216" height="3.587"/>
							<path style="fill:#736374;" d="M366.517,155.547c2.581,1.49,6.765,1.49,9.345,0c2.581-1.49,2.581-3.906,0-5.396
								c-2.581-1.49-6.765-1.49-9.345,0C363.937,151.641,363.937,154.057,366.517,155.547z"/>
							<path style="opacity:0.36;fill:#FFCC85;" d="M368.714,154.05c1.368,0.79,3.585,0.79,4.952,0c1.368-0.79,1.368-2.07,0-2.859
								c-1.367-0.79-3.585-0.79-4.952,0C367.346,151.981,367.346,153.261,368.714,154.05z"/>
						</g>
					</g>
					<g>
						<g>
							<path style="fill:#FFAD10;" d="M400.184,181.563c2.581,1.49,6.765,1.49,9.345,0c2.581-1.49,2.581-3.906,0-5.395
								c-2.581-1.49-6.765-1.49-9.345,0S397.603,180.073,400.184,181.563z"/>
							<path style="fill:#B9EAF0;" d="M398.249,164.472h13.216v14.393c0,0.977-0.645,1.953-1.936,2.698
								c-2.581,1.49-6.765,1.49-9.345,0c-1.29-0.745-1.935-1.721-1.935-2.698l0,0V164.472z"/>
							<path style="fill:#00A1BE;" d="M409.529,177.747c-2.581,1.49-6.765,1.49-9.345,0c-1.29-0.745-1.935-1.721-1.935-2.698v0
								v-9.004c0.007,0,0.013,0.001,0.019,0.002c0.08,0.909,0.713,1.805,1.916,2.499c2.581,1.49,6.765,1.49,9.345,0
								c1.199-0.692,1.834-1.585,1.918-2.491h0.017v8.995C411.464,176.027,410.819,177.003,409.529,177.747z"/>
							<path style="fill:#00A1BE;" d="M400.184,167.169c2.581,1.49,6.765,1.49,9.345,0c2.581-1.49,2.581-3.906,0-5.396
								c-2.581-1.49-6.765-1.49-9.345,0C397.603,163.264,397.603,165.679,400.184,167.169z"/>
							<path style="fill:#380200;" d="M400.184,162.464c2.581,1.49,6.765,1.49,9.345,0c2.581-1.49,2.581-3.906,0-5.396
								c-2.581-1.49-6.765-1.49-9.345,0C397.603,158.558,397.603,160.974,400.184,162.464z"/>
							
								<rect x="398.249" y="156.179" transform="matrix(-1 -1.224647e-16 1.224647e-16 -1 809.7134 315.9448)" style="fill:#380200;" width="13.216" height="3.587"/>
							<path style="fill:#736374;" d="M400.184,158.877c2.581,1.49,6.765,1.49,9.345,0c2.581-1.49,2.581-3.906,0-5.396
								c-2.581-1.49-6.765-1.49-9.345,0C397.603,154.971,397.603,157.387,400.184,158.877z"/>
							<path style="opacity:0.36;fill:#FFCC85;" d="M402.38,157.38c1.368,0.79,3.585,0.79,4.952,0c1.368-0.79,1.368-2.07,0-2.859
								c-1.367-0.79-3.585-0.79-4.952,0C401.013,155.311,401.013,156.591,402.38,157.38z"/>
						</g>
						<g>
							<path style="fill:#FFAD10;" d="M385.618,189.988c2.581,1.49,6.765,1.49,9.345,0c2.581-1.49,2.581-3.906,0-5.396
								c-2.581-1.49-6.765-1.49-9.345,0C383.037,186.082,383.037,188.498,385.618,189.988z"/>
							<path style="fill:#B9EAF0;" d="M383.682,172.896h13.216v14.393c0,0.977-0.645,1.953-1.936,2.698
								c-2.581,1.49-6.765,1.49-9.345,0c-1.29-0.745-1.936-1.721-1.936-2.698l0,0V172.896z"/>
							<path style="fill:#00A1BE;" d="M394.963,186.172c-2.581,1.49-6.765,1.49-9.345,0c-1.29-0.745-1.936-1.721-1.936-2.698v0
								v-9.004c0.007,0.001,0.013,0.002,0.019,0.002c0.08,0.909,0.713,1.805,1.916,2.499c2.581,1.49,6.765,1.49,9.345,0
								c1.199-0.692,1.834-1.585,1.918-2.491h0.017v8.995C396.898,184.452,396.253,185.428,394.963,186.172z"/>
							<path style="fill:#00A1BE;" d="M385.618,175.594c2.581,1.49,6.765,1.49,9.345,0c2.581-1.49,2.581-3.906,0-5.396
								c-2.581-1.49-6.765-1.49-9.345,0C383.037,171.689,383.037,174.104,385.618,175.594z"/>
							<path style="fill:#380200;" d="M385.618,170.888c2.581,1.49,6.765,1.49,9.345,0c2.581-1.49,2.581-3.906,0-5.396
								c-2.581-1.49-6.765-1.49-9.345,0C383.037,166.983,383.037,169.398,385.618,170.888z"/>
							
								<rect x="383.682" y="164.604" transform="matrix(-1 -1.224647e-16 1.224647e-16 -1 780.5814 332.7944)" style="fill:#380200;" width="13.216" height="3.587"/>
							<path style="fill:#736374;" d="M385.618,167.302c2.581,1.49,6.765,1.49,9.345,0c2.581-1.49,2.581-3.906,0-5.395
								c-2.581-1.49-6.765-1.49-9.345,0C383.037,163.396,383.037,165.812,385.618,167.302z"/>
							<path style="opacity:0.36;fill:#FFCC85;" d="M387.814,165.805c1.368,0.79,3.585,0.79,4.952,0c1.368-0.79,1.368-2.07,0-2.859
								c-1.367-0.789-3.585-0.789-4.952,0C386.447,163.735,386.447,165.015,387.814,165.805z"/>
						</g>
					</g>
				</g>
				<g>
					<polygon style="fill:#EBEAF0;" points="426.935,272.602 397.617,289.19 331.796,251.116 361.114,234.528 					"/>
					<polygon style="fill:#9593B5;" points="397.617,289.19 397.617,296.905 426.935,280.317 426.935,272.602 					"/>
					<polygon style="fill:#BBB8CE;" points="397.617,296.905 331.796,258.12 331.796,251.116 397.617,289.19 					"/>
				</g>
				<g>
					<g>
						<polygon style="fill:#FF5746;" points="353.691,215.204 371.793,225.015 378.012,221.56 360.343,211.655 						"/>
						<polygon style="fill:#EC9227;" points="371.793,225.015 371.793,253.137 378.012,249.508 378.012,221.56 						"/>
						<polygon style="fill:#BBB8CE;" points="378.012,226.405 378.012,236.883 371.793,240.338 371.793,229.86 						"/>
						<polygon style="fill:#EC9227;" points="353.691,215.204 371.793,225.015 371.793,253.137 353.691,242.855 						"/>
						<polygon style="fill:#EBEAF0;" points="371.793,229.863 371.793,240.326 353.691,230.515 353.691,220.052 						"/>
					</g>
					<g>
						<polygon style="fill:#FF5746;" points="342.263,224.691 360.366,234.502 366.584,231.047 348.916,221.142 						"/>
						<polygon style="fill:#EC9227;" points="360.366,234.502 360.366,262.624 366.584,258.995 366.584,231.047 						"/>
						<polygon style="fill:#BBB8CE;" points="366.584,235.892 366.584,246.37 360.366,249.825 360.366,239.347 						"/>
						<polygon style="fill:#EC9227;" points="342.263,224.691 360.366,234.502 360.366,262.624 342.263,252.342 						"/>
						<polygon style="fill:#EBEAF0;" points="360.366,239.35 360.366,249.813 342.263,240.002 342.263,229.539 						"/>
					</g>
					<g>
						<g>
							<path style="fill:#FFAD10;" d="M381.848,259.452c2.581,1.49,6.765,1.49,9.345,0c2.581-1.49,2.581-3.906,0-5.396
								c-2.581-1.49-6.765-1.49-9.345,0S379.268,257.962,381.848,259.452z"/>
							<path style="opacity:0.64;fill:#FFCC85;" d="M379.913,242.361h13.216v14.393c0,0.977-0.645,1.953-1.936,2.698
								c-2.581,1.49-6.765,1.49-9.345,0c-1.29-0.745-1.935-1.721-1.935-2.698l0,0V242.361z"/>
							<path style="fill:#FF5746;" d="M391.194,255.637c-2.581,1.49-6.765,1.49-9.345,0c-1.29-0.745-1.935-1.721-1.935-2.698v0
								v-9.004c0.007,0,0.013,0.001,0.019,0.002c0.08,0.909,0.713,1.805,1.916,2.499c2.581,1.49,6.765,1.49,9.345,0
								c1.199-0.692,1.834-1.585,1.918-2.491h0.017v8.995C393.129,253.916,392.484,254.892,391.194,255.637z"/>
							<path style="fill:#FFAD10;" d="M381.848,245.059c2.581,1.49,6.765,1.49,9.345,0c2.581-1.49,2.581-3.906,0-5.396
								c-2.581-1.49-6.765-1.49-9.345,0S379.268,243.568,381.848,245.059z"/>
							<path style="fill:#380200;" d="M381.848,240.353c2.581,1.49,6.765,1.49,9.345,0c2.581-1.49,2.581-3.906,0-5.396
								c-2.581-1.49-6.765-1.49-9.345,0C379.268,236.447,379.268,238.863,381.848,240.353z"/>
							
								<rect x="379.913" y="234.068" transform="matrix(-1 -1.224647e-16 1.224647e-16 -1 773.0422 471.723)" style="fill:#380200;" width="13.216" height="3.587"/>
							<path style="fill:#736374;" d="M381.848,236.766c2.581,1.49,6.765,1.49,9.345,0c2.581-1.49,2.581-3.906,0-5.395
								c-2.581-1.49-6.765-1.49-9.345,0C379.268,232.86,379.268,235.276,381.848,236.766z"/>
							<path style="opacity:0.36;fill:#FFCC85;" d="M384.045,235.269c1.368,0.79,3.585,0.79,4.952,0c1.368-0.79,1.368-2.07,0-2.859
								c-1.367-0.79-3.585-0.79-4.952,0C382.677,233.2,382.677,234.48,384.045,235.269z"/>
						</g>
						<g>
							<path style="fill:#FFAD10;" d="M367.282,267.877c2.581,1.49,6.765,1.49,9.345,0c2.581-1.49,2.581-3.906,0-5.395
								c-2.581-1.49-6.765-1.49-9.345,0C364.702,263.971,364.702,266.387,367.282,267.877z"/>
							<path style="opacity:0.64;fill:#FFCC85;" d="M365.347,250.786h13.216v14.393c0,0.977-0.645,1.953-1.936,2.698
								c-2.581,1.49-6.765,1.49-9.345,0c-1.29-0.745-1.935-1.721-1.935-2.698l0,0V250.786z"/>
							<path style="fill:#FF5746;" d="M376.628,264.061c-2.581,1.49-6.765,1.49-9.345,0c-1.29-0.745-1.935-1.721-1.935-2.698v0
								v-9.004c0.007,0.001,0.013,0.002,0.019,0.002c0.08,0.909,0.713,1.805,1.916,2.499c2.581,1.49,6.765,1.49,9.345,0
								c1.199-0.692,1.834-1.585,1.918-2.491h0.017v8.995C378.563,262.341,377.918,263.317,376.628,264.061z"/>
							<path style="fill:#FFAD10;" d="M367.282,253.483c2.581,1.49,6.765,1.49,9.345,0c2.581-1.49,2.581-3.906,0-5.396
								c-2.581-1.49-6.765-1.49-9.345,0C364.702,249.578,364.702,251.993,367.282,253.483z"/>
							<path style="fill:#380200;" d="M367.282,248.777c2.581,1.49,6.765,1.49,9.345,0c2.581-1.49,2.581-3.906,0-5.396
								c-2.581-1.49-6.765-1.49-9.345,0C364.702,244.872,364.702,247.288,367.282,248.777z"/>
							
								<rect x="365.347" y="242.493" transform="matrix(-1 -1.224647e-16 1.224647e-16 -1 743.9102 488.5726)" style="fill:#380200;" width="13.216" height="3.587"/>
							<path style="fill:#736374;" d="M367.282,245.191c2.581,1.49,6.765,1.49,9.345,0c2.581-1.49,2.581-3.906,0-5.395
								c-2.581-1.49-6.765-1.49-9.345,0C364.702,241.285,364.702,243.701,367.282,245.191z"/>
							<path style="opacity:0.36;fill:#FFCC85;" d="M369.479,243.694c1.368,0.79,3.585,0.79,4.952,0c1.368-0.79,1.368-2.07,0-2.859
								c-1.368-0.789-3.585-0.789-4.952,0C368.111,241.624,368.111,242.904,369.479,243.694z"/>
						</g>
					</g>
					<g>
						<g>
							<path style="fill:#FFAD10;" d="M400.949,271.207c2.581,1.49,6.765,1.49,9.345,0c2.581-1.49,2.581-3.906,0-5.395
								c-2.581-1.49-6.765-1.49-9.345,0C398.368,267.301,398.368,269.716,400.949,271.207z"/>
							<path style="fill:#B9EAF0;" d="M399.013,254.115h13.216v14.393c0,0.977-0.645,1.953-1.936,2.698
								c-2.581,1.49-6.765,1.49-9.345,0c-1.29-0.745-1.935-1.721-1.935-2.698l0,0V254.115z"/>
							<path style="fill:#00A1BE;" d="M410.294,267.391c-2.581,1.49-6.765,1.49-9.345,0c-1.29-0.745-1.935-1.721-1.935-2.698v0
								v-9.004c0.007,0.001,0.013,0.001,0.019,0.002c0.08,0.909,0.713,1.805,1.916,2.499c2.581,1.49,6.765,1.49,9.345,0
								c1.199-0.692,1.834-1.585,1.918-2.491h0.017v8.995C412.229,265.671,411.584,266.647,410.294,267.391z"/>
							<path style="fill:#00A1BE;" d="M400.949,256.813c2.581,1.49,6.765,1.49,9.345,0c2.581-1.49,2.581-3.906,0-5.396
								c-2.581-1.49-6.765-1.49-9.345,0C398.368,252.908,398.368,255.323,400.949,256.813z"/>
							<path style="fill:#380200;" d="M400.949,252.107c2.581,1.49,6.765,1.49,9.345,0c2.581-1.49,2.581-3.906,0-5.396
								c-2.581-1.49-6.765-1.49-9.345,0C398.368,248.202,398.368,250.617,400.949,252.107z"/>
							
								<rect x="399.013" y="245.823" transform="matrix(-1 -1.224647e-16 1.224647e-16 -1 811.2432 495.2322)" style="fill:#380200;" width="13.216" height="3.587"/>
							<path style="fill:#736374;" d="M400.949,248.52c2.581,1.49,6.765,1.49,9.345,0c2.581-1.49,2.581-3.906,0-5.396
								c-2.581-1.49-6.765-1.49-9.345,0C398.368,244.615,398.368,247.031,400.949,248.52z"/>
							<path style="opacity:0.36;fill:#FFCC85;" d="M403.145,247.024c1.368,0.79,3.585,0.79,4.952,0c1.368-0.79,1.368-2.07,0-2.859
								c-1.367-0.789-3.585-0.789-4.952,0C401.778,244.954,401.778,246.234,403.145,247.024z"/>
						</g>
						<g>
							<path style="fill:#FFAD10;" d="M386.383,279.631c2.581,1.49,6.765,1.49,9.345,0c2.581-1.49,2.581-3.906,0-5.396
								c-2.581-1.49-6.765-1.49-9.345,0C383.802,275.726,383.802,278.141,386.383,279.631z"/>
							<path style="fill:#B9EAF0;" d="M384.447,262.54h13.216v14.393c0,0.977-0.645,1.953-1.935,2.698
								c-2.581,1.49-6.765,1.49-9.345,0c-1.29-0.745-1.936-1.721-1.936-2.698l0,0V262.54z"/>
							<path style="fill:#00A1BE;" d="M395.728,275.816c-2.581,1.49-6.765,1.49-9.345,0c-1.29-0.745-1.936-1.721-1.936-2.698v0
								v-9.004c0.007,0.001,0.013,0.002,0.019,0.002c0.08,0.909,0.713,1.805,1.916,2.499c2.581,1.49,6.765,1.49,9.345,0
								c1.199-0.692,1.834-1.585,1.918-2.491h0.017v8.995C397.663,274.095,397.018,275.071,395.728,275.816z"/>
							<path style="fill:#00A1BE;" d="M386.383,265.238c2.581,1.49,6.765,1.49,9.345,0c2.581-1.49,2.581-3.906,0-5.396
								c-2.581-1.49-6.765-1.49-9.345,0C383.802,261.332,383.802,263.748,386.383,265.238z"/>
							<path style="fill:#380200;" d="M386.383,260.532c2.581,1.49,6.765,1.49,9.345,0c2.581-1.49,2.581-3.906,0-5.396
								c-2.581-1.49-6.765-1.49-9.345,0C383.802,256.626,383.802,259.042,386.383,260.532z"/>
							
								<rect x="384.447" y="254.247" transform="matrix(-1 -1.224647e-16 1.224647e-16 -1 782.1112 512.0818)" style="fill:#380200;" width="13.216" height="3.587"/>
							<path style="fill:#736374;" d="M386.383,256.945c2.581,1.49,6.765,1.49,9.345,0c2.581-1.49,2.581-3.906,0-5.395
								c-2.581-1.49-6.765-1.49-9.345,0C383.802,253.04,383.802,255.455,386.383,256.945z"/>
							<path style="opacity:0.36;fill:#FFCC85;" d="M388.579,255.449c1.368,0.79,3.585,0.79,4.952,0c1.368-0.79,1.368-2.07,0-2.859
								c-1.368-0.79-3.585-0.79-4.952,0C387.212,253.379,387.212,254.659,388.579,255.449z"/>
						</g>
					</g>
				</g>
			</g>
		</g>
		<g>
			
				<linearGradient id="SVGID_00000163778225456380526350000012967325352244794018_" gradientUnits="userSpaceOnUse" x1="434.4068" y1="317.028" x2="473.5608" y2="362.0258" gradientTransform="matrix(-1 0 0 1 724.9472 0)">
				<stop  offset="0" style="stop-color:#CBE4FE"/>
				<stop  offset="1" style="stop-color:#CBE4FE;stop-opacity:0"/>
			</linearGradient>
			<path style="fill:url(#SVGID_00000163778225456380526350000012967325352244794018_);" d="M227.88,336.974
				c-1.008,13.957,15.435,28.747,36.726,33.034c21.291,4.287,39.368-3.553,40.376-17.51c1.008-13.957-15.435-28.747-36.726-33.034
				C246.964,315.177,228.887,323.017,227.88,336.974z"/>
			<g>
				<path style="fill:#B9EAF0;" d="M238.82,239.624c0,0,11.93,8.779,45.696,6.053l-10.661-64.349l-27.919-1.077
					C245.937,180.251,250.996,218.892,238.82,239.624z"/>
				<g>
					<path style="fill:#E69095;" d="M258.329,318.001h-8.259c0,3.816-0.516,6.462-0.551,7.352c-0.111,2.853-3.749,6.773-5.095,8.029
						c0.221,9.437,15.184-4.032,15.184-4.032c0.505-2.498-0.454-5.498-0.895-7.117C258.456,321.171,258.343,319.717,258.329,318.001
						z"/>
					<path style="fill:#002A32;" d="M260.88,323.853c0,0-0.825-0.831-1.643,0.327c0,0,0.444,2.42,0.237,2.747
						c-0.589,0.931-3.473,2.728-5.376,3.138c-0.767,0.165-1.081,0.066-1.623-0.77c0,0,0.477-1.908-1.335-3.339
						c-1.812-1.431-2.671,0.382-2.671,0.382s-0.227,3.666-5.559,7.046c-5.489,3.48-9.265,5.13-7.331,8.028
						c1.073,1.608,6.361,2.911,8.665,2.235c1.7-0.499,4.139-1.542,8.438-4.116c4.048-2.423,9.526-5.973,9.611-7.503
						C262.406,329.979,262.345,324.203,260.88,323.853z"/>
					<path style="fill:#5C4556;" d="M261.967,323.928c-4.446,4.146-11.884,2.637-15.623,0.709c0-8.008-0.948-41.202-0.52-47.235
						c-0.972-31.552,3.486-69.729,3.499-65.206c0,0,24.535-14.732,25.5,6.885c0.701,15.716-4.095,42.973-7.196,59.367
						c-1.445,7.639-0.544,13.796-0.648,15.678C265.994,312.039,261.94,323.807,261.967,323.928z"/>
					<path style="fill:#3D283C;" d="M260.307,316.369c0.576-14.163-0.767-28.301-0.91-42.456
						c-0.123-12.181,2.751-24.512,1.127-36.631c-1.197-8.937-1.129-18.171-7.509-24.197c0.043-1.445,20.842-15.621,21.807,5.995
						c0.701,15.716-4.095,42.973-7.196,59.367c-1.445,7.64-0.544,13.796-0.648,15.678c-0.985,17.913-5.039,29.68-5.012,29.802
						c-1.014,0.945-2.036,1.441-3.121,1.907C259.643,322.689,260.173,319.667,260.307,316.369z"/>
				</g>
				<g>
					<g>
						<path style="fill:#002A32;" d="M289.811,333.444c0,0,0.864,0.576,0.864,8.068c0,7.492,2.154,10.105,0.768,14.023
							c-1.266,3.58-2.401,5.091-6.147,5.091c-3.746,0-6.819-3.17-6.915-7.3c-0.096-4.13,1.537-5.859,2.305-11.142
							c0.768-5.283-0.384-7.972,1.537-9.509C284.144,331.138,289.164,330.732,289.811,333.444z"/>
						<path style="fill:#E69095;" d="M288.656,335.346c0.001,0.082,0,6.065,0,6.065h-0.748c-0.128-0.62-0.728-1.074-2.184-1.096
							c-2.449-0.037-2.684,1.096-2.684,1.096h-0.681c0,0,0.1-4.456,0.473-6.412C283.204,333.043,288.634,332.546,288.656,335.346z"
							/>
					</g>
					<path style="fill:#5C4556;" d="M292.268,333.38c-4.035,4.957-11.83,4.829-16.001,3.358c-1.174-4.279-1.756-32.235-4.079-44.094
						c-2.376-10.243-9.142-73.813-9.142-73.813s23.436-18.867,27.546,3.507c2.988,16.267,1.91,45.343,1.036,62.862
						c-0.407,8.164,1.415,14.446,1.578,16.422C294.753,320.418,292.222,333.257,292.268,333.38z"/>
					<path style="fill:#3D283C;" d="M288.348,319.336c-0.301-11.277,0.022-22.616-1.933-33.776
						c-2.026-11.564-4.355-24.469-14.883-29.472c-11.105-5.276-4.979-26.958-4.9-39.376c0.001-0.131-0.016-0.25-0.034-0.368
						c6.715-4.255,20.885-10.933,23.995,5.995c2.988,16.267,1.91,45.343,1.036,62.862c-0.408,8.164,1.415,14.446,1.578,16.422
						c1.547,18.797-0.984,31.635-0.938,31.758c-0.964,1.184-2.03,2.067-3.148,2.717
						C289.051,330.506,288.495,324.877,288.348,319.336z"/>
				</g>
				<g>
					<path style="fill:#B9EAF0;" d="M227.414,202.425c1.005,3.698,0.519,7.123-1.372,7.637c-1.891,0.514-4.471-2.077-5.476-5.775
						c-1.006-3.698-0.602-6.953,1.289-7.467C223.746,196.306,226.408,198.727,227.414,202.425z"/>
					<g>
						<path style="fill:#E69095;" d="M227.397,204.652c1.134-0.683,4.246-1.548,4.257-2.812c0.02-2.092-1.498-3.233-2.028-5.058
							c-1.302-0.284-1.727-0.36-3.184,0.221c-0.194,0.077-2.742,1.507-3.025,1.556c-2.189,0.377-3.705,0.198-5.561,1.169
							c-1.12,0.586-2.103,1.711-3.225,2.364c-1.364,0.794-3.378,2.409-3.371,3.945c0.007,1.536,1.022,2.683,1.647,3.73
							c1.276,2.137,2.832,2.227,7.334,0.553c1.19-0.443,4.767-3.738,6.057-4.934C226.652,205.057,227.215,204.762,227.397,204.652z"
							/>
						<g>
							<path style="fill:#E69095;" d="M211.891,198.837c0.601-0.429,1.301-0.842,2.16-1.068c0.855-0.231,1.807-0.211,2.612-0.049
								c0.814,0.159,1.513,0.411,2.165,0.659l1.863,0.757c1.041,0.423,1.543,1.611,1.119,2.652
								c-0.423,1.042-1.611,1.543-2.652,1.119c-0.127-0.052-0.247-0.115-0.357-0.188l-0.03-0.02
								c-1.065-0.713-2.111-1.453-2.978-1.828c-0.435-0.184-0.799-0.277-1.215-0.271c-0.414,0.007-0.902,0.149-1.408,0.374
								l-0.048,0.021c-0.631,0.28-1.369-0.005-1.648-0.635C211.229,199.809,211.417,199.174,211.891,198.837z"/>
						</g>
						<g>
							<path style="fill:#E69095;" d="M215.233,205.976c-0.779,0.556-1.667,0.95-2.62,1.127c-0.947,0.178-1.991,0.127-2.964-0.288
								c-0.976-0.401-1.795-1.228-2.194-2.135c-0.413-0.909-0.489-1.825-0.46-2.668c0.021-0.619,0.54-1.104,1.159-1.083
								c0.567,0.019,1.022,0.457,1.077,1.006l0.008,0.076c0.06,0.589,0.208,1.128,0.456,1.501c0.248,0.375,0.561,0.576,0.936,0.671
								c0.755,0.207,1.818-0.17,2.501-0.846c0.665-0.659,1.738-0.654,2.397,0.011c0.659,0.665,0.654,1.738-0.011,2.397
								c-0.063,0.063-0.13,0.119-0.2,0.17L215.233,205.976z"/>
						</g>
						<g>
							<path style="fill:#E69095;" d="M215.525,208.853c-0.583,0.198-1.188,0.425-1.864,0.639c-0.682,0.199-1.423,0.449-2.472,0.391
								c-0.534-0.065-1.159-0.232-1.619-0.636c-0.258-0.177-0.394-0.398-0.577-0.608c-0.143-0.21-0.245-0.419-0.357-0.632
								c-0.346-0.823-0.413-1.543-0.489-2.252c-0.066-0.615,0.379-1.168,0.994-1.235c0.563-0.061,1.073,0.306,1.207,0.839
								l0.021,0.084c0.138,0.544,0.303,1.094,0.521,1.424l0.152,0.177c0.049,0.006,0.078,0.079,0.107,0.054
								c0.033,0.023,0.071-0.029,0.16-0.021c0.236-0.038,0.729-0.214,1.232-0.466l1.657-0.859c0.828-0.432,1.85-0.111,2.282,0.717
								c0.432,0.828,0.111,1.85-0.717,2.282C215.69,208.79,215.601,208.827,215.525,208.853z"/>
						</g>
						<g>
							<path style="fill:#E69095;" d="M215.911,211.402c-0.756,0.246-1.596,0.532-2.785,0.332c-0.607-0.137-1.264-0.478-1.674-1.006
								c-0.393-0.504-0.588-1.05-0.659-1.5c-0.157-0.926-0.047-1.678,0.084-2.396c0.138-0.715,0.355-1.368,0.577-2.014
								c0.202-0.586,0.84-0.898,1.427-0.697c0.533,0.183,0.839,0.727,0.74,1.265l-0.01,0.051c-0.108,0.586-0.209,1.173-0.23,1.726
								c-0.025,0.545,0.017,1.089,0.143,1.411c0.053,0.175,0.14,0.222,0.148,0.211c0.004-0.028-0.043-0.104-0.031-0.099
								c0.089-0.027,0.516-0.144,0.93-0.379c0.814-0.464,1.85-0.18,2.314,0.635c0.464,0.814,0.18,1.85-0.634,2.314
								c-0.099,0.057-0.202,0.102-0.306,0.137L215.911,211.402z"/>
						</g>
						<g>
							<path style="fill:#E69095;" d="M221.788,209.274c-0.706,0.491-1.423,0.966-2.259,1.322c-0.833,0.351-1.741,0.647-2.836,0.624
								c-0.534-0.002-1.158-0.145-1.732-0.464c-0.589-0.339-1.045-0.914-1.271-1.504c-0.414-1.196-0.158-2.172,0.092-3.011
								c0.177-0.594,0.801-0.931,1.394-0.755c0.558,0.166,0.891,0.729,0.781,1.289l-0.014,0.069
								c-0.119,0.599-0.087,1.204,0.073,1.423c0.081,0.097,0.132,0.118,0.21,0.14c0.099,0.008,0.229,0.043,0.447,0.004
								c0.415-0.051,0.96-0.271,1.472-0.579c0.522-0.302,1.018-0.732,1.499-1.163l0.049-0.044c0.696-0.623,1.765-0.564,2.388,0.132
								c0.623,0.696,0.564,1.765-0.132,2.388C221.9,209.19,221.841,209.237,221.788,209.274z"/>
						</g>
					</g>
					<path style="fill:#FFFFFF;" d="M226.042,210.062c2.945-3.388,0.194-12.989-4.188-13.242
						c0.434-0.063,16.624-10.075,20.875-13.131c2.027-1.458,3.947-2.727,5.934-3.827c8.23-0.267,3.782,11.974,3.768,12.271
						C250.317,193.272,227.986,209.609,226.042,210.062z"/>
					<path style="fill:#DDD9EB;" d="M247.1,192.855c-6.049,4.586-12.825,9.04-19.855,12.516c0.098,1.861-0.253,3.6-1.202,4.691
						c1.944-0.453,24.275-16.79,26.39-17.929c0.006-0.125,0.792-2.361,1.094-4.89C251.522,189.237,249.389,191.119,247.1,192.855z"
						/>
					<path style="fill:#FFFFFF;" d="M255.228,142.949c0,0-10.415,3.009-12.072,10.195c-1.615,7.201-1.772,13.613-1.449,18.324
						c0.323,4.71-0.137,17.529-0.137,17.529l6.526-3.732l3.761-28.722L255.228,142.949z"/>
				</g>
				<g>
					<g>
						<path style="fill:#00A1BE;" d="M289.044,190.758c0,0-3.09,5.728-4.803,10.142c-4.241,7.076-14.611,17.599-23.851,15.848
							c-3.978-0.754-7.725-2.345-11.067-4.552c-0.659-7.957-1.868-9.479-1.228-36.829c0.535-22.852,10.177-27.126,13.506-34.941
							h3.548l16.781,7.48c0,0,3.616,3.423,7.066,6.467c3.003,2.649,4.497,6.615,3.979,10.587
							C291.725,174.547,289.044,190.758,289.044,190.758z"/>
						<path style="fill:#0090A8;" d="M260.133,216.693c-0.173-0.878-0.4-1.754-0.707-2.629c-1.295-3.686-3.614-6.702-3.834-10.751
							c-0.209-3.853,1.462-6.979,2.327-10.605c0.039-0.161,0.058-0.317,0.064-0.466c0.406-1.33,0.759-3.057,1.013-5.332
							c0.467-4.174,0.99-8.959,2.686-12.748c2.431-5.429,4.525-10.933,6.005-16.625c6.168-1.849,14.243-9.631,14.243-9.631
							s3.616,3.423,7.066,6.467c3.003,2.649,4.497,6.615,3.979,10.587c-1.25,9.587-3.931,25.798-3.931,25.798
							s-3.09,5.728-4.803,10.142c-4.241,7.076-14.611,17.599-23.851,15.848C260.304,216.732,260.219,216.71,260.133,216.693z"/>
					</g>
					<g>
						<polygon style="fill:#FFAD10;" points="265.361,157.578 262.682,161.671 258.731,160.275 258.926,155.764 262.16,154.149 
													"/>
						<polygon style="fill:#FFAD10;" points="262.682,161.671 258.605,213.914 253.813,218.4 250.785,211.671 258.731,160.275 
													"/>
					</g>
					<path style="fill:#E69095;" d="M264.924,138.936c0,0,0.022,4.668,0.035,4.738c-9.86,16.242,8.858,16.618,12.125,2.297
						c-2.629-4.729-1.698-15.592-1.698-15.592C275.386,129.862,264.924,138.318,264.924,138.936z"/>
					<g>
						<polygon style="fill:#B9EAF0;" points="263.555,154.646 262.506,157.409 268.215,155.615 						"/>
						<path style="fill:#FFFFFE;" d="M275.409,139.159c0,0,1.602-0.015,2.513,1.27c2.108,2.602,1.843,4.491,1.843,4.695
							c0,0.418-3.178,3.659-4.682,5.82l-4.827,9.842l-6.7-6.139C263.555,154.646,274.473,147.857,275.409,139.159z"/>
						<path style="fill:#FFFFFE;" d="M262.506,157.409l1.049-2.762c0,0-0.683-4.833,1.404-10.972v-2.573
							c0,0-2.444,0.773-3.369,1.484c0,0-3.812,4.175-4.019,7.93c-0.207,3.755-0.898,7.063-0.898,7.063l3.17-3.171L262.506,157.409z"
							/>
					</g>
				</g>
				<g>
					<g>
						<path style="fill:#FFFFFF;" d="M276.978,142.86c0,0-8.435,12.37-13.139,20.046c-4.704,7.677-4.349,36.993-4.349,36.993
							l4.349,57.292c0,0,27.012,2.603,38.51-9.693c0.108-24.826-3.422-76.904-7.209-91.669
							C295.141,155.83,284.723,147.384,276.978,142.86z"/>
					</g>
					<g>
						<path style="fill:#DDD9EB;" d="M295.06,155.764c-1.197,3.976-10.568,14.951-10.544,22.127
							c0.04,11.938,1.538,30.592,2.686,47.465c0.73,10.719-1.905,20.501-4.089,30.989c7.06-1.225,14.476-3.758,19.236-8.847
							c0.108-24.826-3.422-76.904-7.209-91.669C295.141,155.83,295.109,155.804,295.06,155.764z"/>
					</g>
				</g>
				<g>
					<path style="fill:#FFFFFF;" d="M253.529,144.025c0,0,4.579-4.036,10.311-5.004c0,0-12.938,21.185-14.332,31.496
						c-1.393,10.31-0.844,81.647-0.844,81.647s-6.878-5.434-9.844-12.54c0,0,3.619-52.984,4.785-64.808
						c1.166-11.823,6.621-16.421,7.725-21.855C252.434,147.527,253.529,144.025,253.529,144.025z"/>
					<path style="fill:#B9EAF0;" d="M260.259,137.62l-5.403,5.24l-2.424,9.135l0.997,3.256l-3.35,1.222
						c0,0-5.908,19.767-1.415,50.822c0,0-0.572-29.522,4.765-46.373c4.122-13.016,12.178-24.236,12.178-24.236L260.259,137.62z"/>
				</g>
				<g>
					<path style="fill:#B9EAF0;" d="M299.113,229.628c0,5.04-0.756,5.138-1.934,9.888c-1.301,0-4.791-1.914-6.387-6.695
						c-1.1-3.296-1.781-8.967,0.787-9.749C293.859,222.379,299.113,224.588,299.113,229.628z"/>
					<path style="fill:#E69095;" d="M292.252,222.688c-1.684,1.019-3.452,1.618-5.049,2.668c-1.596,1.05-2.097,1.973-3.023,3.959
						s-2.781,4.809-4.871,6.333c-2.09,1.524,1.84,2.069,2.949,1.392c1.108-0.676,2.634-4.417,4.278-3.243
						c1.644,1.174-0.34,6.202-1.344,7.268c-1.004,1.066-3.696,2.619-2.89,3.868c0.805,1.249,1.922,0.384,3.897-0.717
						c1.975-1.101,6.177-4.005,7.33-7.128c1.153-3.124,2.527-7.337,3.308-10.206C297.616,224.014,293.811,223.653,292.252,222.688z"
						/>
					<path style="fill:#FFFFFF;" d="M303.995,171.99c-2.768-11.715-5.615-17.473-14.471-16.033
						c-5.913,0.962-9.622,7.928-7.395,16.033c3.466,10.082,9.337,17.901,13.201,24.761c0.234,5.211-4.02,21.649-3.516,26.181
						c5.127,0.82,7.204,8.529,5.365,16.584c7.78-17.078,15.684-30.747,15.704-42.95C312.892,190.621,308.476,184.471,303.995,171.99
						z"/>
					<path style="fill:#DDD9EB;" d="M312.883,196.567c0.01-5.945-4.407-12.096-8.888-24.576c-1.608-6.803-3.25-11.581-6.072-14.123
						c1.446,3.726,2.317,7.749,3.023,11.38c1.293,6.647,7.848,25.171,7.819,28.382c-0.039,4.368-4.03,10.373-5.257,14.533
						c-1.673,5.677-3.739,11.405-6.262,16.878c0.786,2.96,0.8,6.675-0.068,10.477C304.959,222.439,312.863,208.77,312.883,196.567z"
						/>
				</g>
				<path style="fill:#B9EAF0;" d="M275.331,140.036l-0.035-2.476l3.582,1.665l0.961,4.832l2.29,2.085l-8.273,12.39l-6.353,1.911
					l1.471,4.733c0,0-8.345,20.145-8.9,42.399c0,0-3.405-16.445,1.894-42.871C261.967,164.703,267.947,149.375,275.331,140.036z"/>
				<g>
					<path style="fill:#FFA0A6;" d="M261.235,140.918c-0.691-0.065-1.319-0.417-1.736-0.971c-1.001-1.329-2.099-3.203-2.793-4.985
						c-1.074-2.758-0.846-3.589-1.031-7.159c-1.919-11.528,1.651-15.95,4.015-17.8c5.194-4.064,13.135-1.822,15.387,0.142
						c0.956,0.834,1.77,1.722,2.451,2.651c-0.005,0.078-0.023,0.148-0.023,0.23v17.266c-0.823,1.422-1.819,2.817-2.985,4.161
						c-0.62,0.715-1.609,1.955-2.841,3.24c-2.338,2.439-5.665,3.679-9.028,3.36C262.129,141.002,261.638,140.956,261.235,140.918z"
						/>
					<path style="fill:#002A32;" d="M259.253,105.954c6.279,1.74,11.311,0.751,17.212,2.893c4.96,1.801,5.147,6.223,2.852,15.984
						c-1.599,6.798-2.379,8.851-4.479,8.524c0.191-1.314-1.792-5.036-1.871-5.003c-0.758-3.708-1.419-7.562-8.321-9.405
						c-3.978-1.042-8.827-0.438-9.516,1.384C250.827,115.518,251.303,103.751,259.253,105.954z"/>
					<path style="fill:#FFA0A6;" d="M271.267,128.45c-0.603,2.327,0.021,4.501,1.393,4.856c1.372,0.355,2.973-1.243,3.575-3.569
						c0.602-2.327-0.021-4.501-1.393-4.856C273.47,124.525,271.869,126.123,271.267,128.45z"/>
					<path style="fill:#002A32;" d="M270.564,120.331l0.23,8.297c0,0,0.647,0.947,1.83,0.643c1.183-0.304,1.74-7.166,1.74-7.166
						L270.564,120.331z"/>
					<path style="fill:#002A32;" d="M255.129,120.331c0,0,11.029,4.126,16.083,1.421c0,0,1.424-4.903-6.567-7.946
						C256.654,110.763,255.129,120.331,255.129,120.331z"/>
				</g>
			</g>
		</g>
		<g>
			<g>
				
					<linearGradient id="SVGID_00000179646672500865616900000017330901236663652009_" gradientUnits="userSpaceOnUse" x1="123.2939" y1="386.0086" x2="136.2694" y2="409.1388" gradientTransform="matrix(-1 0 0 1 309.3744 0)">
					<stop  offset="0" style="stop-color:#CBE4FE"/>
					<stop  offset="1" style="stop-color:#CBE4FE;stop-opacity:0"/>
				</linearGradient>
				<polygon style="fill:url(#SVGID_00000179646672500865616900000017330901236663652009_);" points="260.391,428.49 
					231.012,446.208 97.432,369.086 128.34,351.9 				"/>
				<g>
					<polygon style="fill:#9BD9E0;" points="260.391,319.046 260.391,428.49 128.34,351.9 128.34,243.822 					"/>
					<g>
						<polygon style="fill:#00A1BE;" points="194.366,305.269 194.366,345.823 182.757,338.896 182.757,298.471 						"/>
						<polygon style="fill:#00A1BE;" points="170.961,305.41 206.201,325.432 206.201,338.933 170.961,318.781 						"/>
					</g>
					<polygon style="fill:#00A1BE;" points="260.391,319.046 314.68,287.256 314.68,396.969 260.391,428.49 					"/>
					<polygon style="fill:#B9EAF0;" points="314.68,287.256 181.011,210.708 128.34,243.822 260.391,319.046 					"/>
				</g>
			</g>
			<g>
				<polygon style="fill:#BBB8CE;" points="226.603,276.322 214.199,284.565 199.325,276.83 199.325,275.979 211.14,267.289 				"/>
				<polygon style="fill:#A5A4C0;" points="226.603,275.471 214.199,283.714 199.325,275.979 211.14,266.439 				"/>
				<g>
					<polygon style="fill:#BBB8CE;" points="186.558,209.917 245.918,244.494 245.918,291.862 186.558,257.086 					"/>
					<polygon style="fill:#FCFDF7;" points="186.558,209.917 189.631,208.532 247.916,242.495 247.916,290.263 245.918,291.862 
						245.918,244.494 					"/>
				</g>
				<path style="fill:#A5A4C0;" d="M204.514,253.431l-4.315,21.999l14.874,7.735l5.203-23.746c0.353-1.613-0.416-3.262-1.878-4.028
					l-8.59-4.499C207.638,249.755,204.985,251.027,204.514,253.431z"/>
				<path style="fill:#EBEAF0;" d="M203.64,253.981l-4.315,21.999l14.874,7.735l5.203-23.745c0.353-1.613-0.416-3.262-1.879-4.028
					l-8.59-4.499C206.763,250.305,204.111,251.577,203.64,253.981z"/>
			</g>
			<g>
				<polygon style="fill:#FF5746;" points="150.131,214.764 168.234,224.575 174.452,221.12 156.784,211.215 				"/>
				<polygon style="fill:#EC9227;" points="168.234,224.575 168.234,252.697 174.452,249.068 174.452,221.12 				"/>
				<polygon style="fill:#BBB8CE;" points="174.452,225.966 174.452,236.443 168.234,239.898 168.234,229.42 				"/>
				<polygon style="fill:#EC9227;" points="150.131,214.764 168.234,224.575 168.234,252.697 150.131,242.415 				"/>
				<polygon style="fill:#EBEAF0;" points="168.234,229.424 168.234,239.887 150.131,230.076 150.131,219.613 				"/>
			</g>
			<g>
				<path style="fill:#FFAD10;" d="M278.775,291.44c3.598,2.078,9.432,2.078,13.03,0c3.598-2.077,3.598-5.445,0-7.523
					c-3.598-2.077-9.432-2.077-13.03,0C275.177,285.994,275.177,289.362,278.775,291.44z"/>
				<path style="opacity:0.64;fill:#FFCC85;" d="M292.231,263.526c-1.071-1.567-3.108-3.437-6.941-3.437
					c-3.833,0-5.865,1.873-6.941,3.437c-0.58,0.843-2.273,2.808-2.273,4.083v20.068c0,1.361,0.9,2.723,2.699,3.762
					c3.598,2.078,9.432,2.078,13.03,0c1.799-1.039,2.699-2.4,2.699-3.762V267.61C294.504,266.334,292.741,264.272,292.231,263.526z"
					/>
				<path style="fill:#BBB8CE;" d="M291.805,286.12c-3.598,2.077-9.432,2.077-13.03,0c-1.799-1.039-2.699-2.4-2.699-3.762v0.001
					v-12.555c0.009,0.001,0.018,0.002,0.027,0.003c0.112,1.267,0.995,2.516,2.672,3.484c3.598,2.077,9.432,2.077,13.03,0
					c1.672-0.965,2.557-2.21,2.675-3.474h0.024v12.542C294.503,283.721,293.603,285.082,291.805,286.12z"/>
				<g>
					<path style="fill:#380200;" d="M280.806,262.858c2.476,1.43,6.491,1.43,8.967,0c2.476-1.43,2.476-3.747,0-5.177
						c-2.476-1.43-6.491-1.43-8.967,0C278.33,259.11,278.33,261.428,280.806,262.858z"/>
					
						<rect x="278.949" y="256.827" transform="matrix(-1 -1.224647e-16 1.224647e-16 -1 570.5802 517.0961)" style="fill:#380200;" width="12.681" height="3.442"/>
					<path style="fill:#736374;" d="M280.806,259.416c2.476,1.43,6.491,1.43,8.967,0c2.476-1.43,2.476-3.747,0-5.177
						c-2.476-1.43-6.491-1.43-8.967,0C278.33,255.668,278.33,257.986,280.806,259.416z"/>
					<path style="opacity:0.36;fill:#FFCC85;" d="M282.914,257.98c1.312,0.758,3.44,0.758,4.752,0c1.312-0.758,1.312-1.986,0-2.744
						c-1.312-0.758-3.44-0.758-4.752,0C281.602,255.994,281.602,257.222,282.914,257.98z"/>
				</g>
			</g>
			<g>
				<g>
					<path style="fill:#B9EAF0;" d="M258.714,301.923c2.581,1.49,6.765,1.49,9.345,0c2.581-1.49,2.581-3.906,0-5.396
						c-2.581-1.49-6.765-1.49-9.345,0C256.134,298.018,256.134,300.434,258.714,301.923z"/>
					<path style="fill:#00A1BE;" d="M268.06,298.108c-2.581,1.49-6.765,1.49-9.345,0c-1.29-0.745-1.935-1.721-1.935-2.698v0v-9.004
						c0.006,0.001,0.013,0.001,0.019,0.002c0.08,0.909,0.713,1.805,1.916,2.499c2.581,1.49,6.765,1.49,9.345,0
						c1.199-0.692,1.834-1.585,1.918-2.491h0.017v8.995C269.995,296.388,269.349,297.363,268.06,298.108z"/>
					<path style="opacity:0.47;fill:#FFFFFF;" d="M268.06,282.134c-2.581-1.49-6.765-1.49-9.345,0
						c-1.29,0.745-1.935,1.721-1.935,2.698l0,0v14.393c0,0.977,0.645,1.953,1.935,2.698c2.581,1.49,6.765,1.49,9.345,0
						c1.29-0.745,1.936-1.722,1.935-2.698v-14.392C269.995,283.856,269.35,282.88,268.06,282.134z"/>
					<g>
						<path style="fill:#380200;" d="M259.756,283.279c2.005,1.158,5.257,1.158,7.263,0c2.005-1.158,2.005-3.035,0-4.193
							c-2.006-1.158-5.257-1.158-7.263,0C257.75,280.244,257.75,282.121,259.756,283.279z"/>
						
							<rect x="258.251" y="278.395" transform="matrix(-1 -1.224647e-16 1.224647e-16 -1 526.7739 559.5781)" style="fill:#380200;" width="10.271" height="2.787"/>
						<path style="fill:#736374;" d="M259.756,280.492c2.005,1.158,5.257,1.158,7.263,0c2.005-1.158,2.005-3.035,0-4.193
							c-2.006-1.158-5.257-1.158-7.263,0C257.75,277.457,257.75,279.334,259.756,280.492z"/>
						<path style="opacity:0.36;fill:#FFCC85;" d="M261.463,279.329c1.063,0.614,2.786,0.614,3.849,0
							c1.063-0.614,1.063-1.608,0-2.222c-1.063-0.614-2.786-0.614-3.849,0C260.4,277.72,260.4,278.715,261.463,279.329z"/>
					</g>
				</g>
			</g>
		</g>
		<g>
			
				<linearGradient id="SVGID_00000062877778107786461130000011821751022234658436_" gradientUnits="userSpaceOnUse" x1="566.4035" y1="396.8229" x2="605.5574" y2="441.8207" gradientTransform="matrix(-1 0 0 1 724.9472 0)">
				<stop  offset="0" style="stop-color:#CBE4FE"/>
				<stop  offset="1" style="stop-color:#CBE4FE;stop-opacity:0"/>
			</linearGradient>
			<path style="fill:url(#SVGID_00000062877778107786461130000011821751022234658436_);" d="M95.883,416.769
				c-1.008,13.957,15.435,28.747,36.726,33.034s39.368-3.553,40.376-17.51c1.008-13.957-15.435-28.747-36.726-33.034
				C114.968,394.972,96.891,402.812,95.883,416.769z"/>
			<g>
				<path style="fill:#E3C4B2;" d="M131.583,251.389c-1.694,0.848-2.827,2.023-2.514,2.633c0.289,0.603,0.533,1.85,2.232,0.999
					c1.687-0.831,4.193-3.449,3.893-4.055C134.898,250.356,133.282,250.552,131.583,251.389z"/>
				<g>
					<path style="fill:#773829;" d="M137.12,407.241c-3.128-0.885-7.027,1.299-7.027,1.299s-8.375,3.514-8.704,4.355
						c0.512,6.888-0.91,11.834-0.02,13.519c0.889,1.687,4.651,3.002,6.326,0.846c1.935-2.486,2.993-6.206,4.512-7.837
						c1.514-1.648,6.576-8.43,6.576-8.43S140.243,408.128,137.12,407.241z"/>
					<path style="fill:#FFA0A6;" d="M110.654,309.992c-1.948,23.457,12.211,43.797,8.387,59.223
						c-5.154,20.815,2.059,27.629,2.347,43.679c0.087,4.813,8.325,4.11,8.325,0.041c0-16.108,3.238-19.665,3.419-39.945
						c0.899-9.793,0.402-25.15,5.992-47.513C138.996,321.45,112.223,308.632,110.654,309.992z"/>
					<path style="fill:#E69095;" d="M127.407,411.502c-2.572-7.822-3.011-16.463-3.232-24.629
						c-0.275-10.146,0.183-20.31,0.934-30.428c0.95-12.796,2.005-25.891,4.317-38.59c-7.878-4.417-17.834-8.677-18.772-7.863
						c-1.948,23.457,12.211,43.797,8.387,59.223c-5.155,20.815,2.058,27.628,2.347,43.679c0.069,3.821,5.264,4.156,7.407,2.099
						C128.253,413.853,127.791,412.67,127.407,411.502z"/>
				</g>
				<g>
					<path style="fill:#773829;" d="M145.933,415.746c-2.086-0.465-5.298,0.175-7.527,0.758c-1.53,0.401-2.58,1.797-2.576,3.378
						c0.006,2.954,0.24,7.436,1.566,8.18c1.997,1.132,18.735-1.398,23.765-2.867c5.028-1.478,4.321-6.039,2.55-7.487
						C161.934,416.253,153.74,417.567,145.933,415.746z"/>
					<path style="fill:#FFA0A6;" d="M154.205,302.994c-9.188,0.346-21.833-3.96-21.833-3.96l-14.434-6.574
						c0,0-7.415,11.915-7.415,19.326c0,11.133,19.436,16.865,19.436,16.865s6.508,41.25,6.11,44.023
						c-6.56,18.525-0.176,28.806,0.704,44.16c0.13,2.274,1.871,3.927,4.148,3.964c4.398,0.071,4.59-3.09,4.59-3.09
						s-1.02-17.092,6.434-46.329C153.686,364.01,156.462,316.518,154.205,302.994z"/>
					<path style="fill:#E69095;" d="M140.231,418.137c-0.909-2.461-0.464-5.254-0.266-7.789c0.217-2.784,0.088-5.529-0.02-8.318
						c-0.258-6.714-0.598-13.439-0.298-20.157c0.267-5.974,1.199-11.878,2.003-17.797c0.644-4.739,1.449-9.385,3.506-13.733
						c1.946-4.115,5.174-11.131,9.567-14.574c0.493-13.305,0.513-26.591-0.519-32.774c-9.188,0.346-21.833-3.96-21.833-3.96
						l-14.434-6.574c0,0-7.415,11.915-7.415,19.326c0,11.133,19.436,16.865,19.436,16.865s6.508,41.25,6.11,44.023
						c-6.56,18.525-0.176,28.806,0.704,44.16c0.13,2.274,1.871,3.927,4.148,3.964c0.327,0.005,0.625-0.012,0.907-0.04
						C141.169,420.032,140.615,419.177,140.231,418.137z"/>
				</g>
				<g>
					<path style="fill:#FFA0A6;" d="M127.689,248.042c-1.39,1.491-3.574,6.183-3.574,6.183s5.69,5.17,6.821,4.974
						c1.123-0.199,3.436-6.495,3.436-6.495s5.572-5.42,3.32-7.55C135.432,243.03,129.083,246.547,127.689,248.042z"/>
					<path style="fill:#3D283C;" d="M119.148,250.795c-1.692-6.121-5.465-12.898-11.314-9.977
						c-4.349,2.173-5.193,9.844-1.879,15.188c3.317,5.33,7.164,11.856,9.066,15.063c1.915,3.224,11.005-3.498,9.544-6.581
						C123.08,261.413,120.832,256.899,119.148,250.795z"/>
				</g>
				<path style="fill:#5C4556;" d="M154.205,302.994l-0.649-7.553c-0.13-4.02-3.25-19.696-2.411-22.062c0,0,5.33-2.374,4.167-8.221
					c-1.348-6.865-16.714-12.613-16.714-12.613l-8.636-3.36l-15.073-6.376c-4.023-1.702-8.68,0.525-9.755,4.758
					c-0.454,1.79-0.74,3.956-0.686,6.541c0.229,10.006,15.307,33.996,15.307,33.996l-1.817,4.356c0,0-14.88,8.878-7.469,45.638
					c0,0,20.334,26.038,45.009,5.336C155.478,343.433,161.269,316.703,154.205,302.994z"/>
				<path style="fill:#3D283C;" d="M122.442,347.061c-1.322-2.788-2.151-5.783-2.714-8.807c-1.215-6.522-1.357-13.232-1.297-19.849
					c0.055-6.098,1.777-11.499,4.182-17.043c2.807-6.471,5.843-13.199,4.464-20.442c-2.154-11.311-14.298-18.145-12.477-30.654
					c0.349-2.4,1.132-4.61,2.216-6.643l-1.927-0.815c-4.023-1.702-8.68,0.525-9.755,4.758c-0.454,1.79-0.74,3.956-0.686,6.541
					c0.229,10.006,15.307,33.996,15.307,33.996l-1.817,4.356c0,0-14.88,8.878-7.469,45.638c0,0,4.79,6.133,12.541,10.079
					C122.814,347.81,122.622,347.44,122.442,347.061z"/>
				<g>
					<path style="fill:#FFA0A6;" d="M126.086,241.21c0,0,6.768,0.594,9.134,1.204c2.366,0.61,4.077-1.878,7.054-9.264
						c1.108-2.749,1.67-6.258,1.996-9.782c0.982-10.636-3.058-13.701-13.098-10.519C120.062,216.37,126.086,241.21,126.086,241.21z"
						/>
					<path style="fill:#E69095;" d="M137.436,241.806c-0.729,0.603-1.452,0.805-2.216,0.607c-2.366-0.61-9.134-1.204-9.134-1.204
						s-0.383-1.581-0.778-4C129.58,236.625,134.278,238.07,137.436,241.806z"/>
					<path style="fill:#E69095;" d="M117.361,247.71c0,0,2.473-9.167,3.004-13.927l9.597,1.613c0,0,1.363,13.047,1.363,17.564
						C131.325,257.477,114.347,256.679,117.361,247.71z"/>
					<g>
						<path style="fill:#002A32;" d="M145.094,214.251c-0.667-6.197-4.578-10.758-13.769-9.881
							c-14.058-2.985-15.957,5.045-17.029,17.751c-0.397,4.704-5.281,6.579-5.135,14.134c0.044,2.28,3.452,5.363,7.112,7.139
							c0.455-0.419,1.939-3.457,1.939-3.457s0,2.663,0,4.109c3.008,0.939,6.489,1.294,10,0.674c0-0.848,0-2.782,0-2.782l1.432,2.553
							C135.777,243.459,146.439,226.757,145.094,214.251z"/>
					</g>
				</g>
				<g>
					<g>
						<path style="fill:#FFA0A6;" d="M143.411,258.172c6.311-1.212,7.632,6.236,8.037,12.445c0.4,6.127,2.149,19.307,3.667,31.777
							c1.263,2.425,11.695,24.776,13.743,26.825c0.328-0.038,2.567,0.604,4.365,0.998c1.804,0.385,4.72,4.836,5.202,5.936
							c0.183,0.418,0.031,1.258-1.599,0.799c-1.361-0.382-2.813-2.651-3.089-2.031c-0.486,1.09,0.893,3.918,0.893,3.918
							s3.003,4.442,2.606,5.717c-0.386,1.281-2.285,1.628-5.375,0.965c-1.266-0.276-2.674-2.758-3.828-4.869
							c-1.665-3.047-3.555-7.685-3.555-7.685s-15.744-22.211-17.715-25.513c-1.725-2.888-7.462-29.49-9.175-35.429
							C135.862,266.086,138.72,259.06,143.411,258.172z"/>
					</g>
					<g>
						<path style="fill:#E69095;" d="M143.411,258.172c6.311-1.212,7.632,6.236,8.037,12.445c0.227,3.474,0.887,7.289,1.693,12.213
							c-2.457,3.718-3.916,13.89-3.649,18.359c0.456,7.632,6.251,14.311,9.254,21.115c0.866,1.962,1.659,3.953,2.409,5.96
							c-4.732-6.708-12.998-18.477-14.392-20.811c-1.725-2.888-7.462-29.49-9.175-35.429
							C135.862,266.086,138.72,259.06,143.411,258.172z"/>
					</g>
					<g>
						<path style="fill:#5C4556;" d="M139.35,289.295c-1.231-4.128-3.175-13.84-3.075-19.265c0.114-6.183,0.585-12.202,5.085-13.798
							c12.928-4.585,15.712,15.71,15.077,29.461C155.632,288.472,146.506,290.778,139.35,289.295z"/>
					</g>
				</g>
			</g>
		</g>
		<g>
			
				<linearGradient id="SVGID_00000048465645262658194930000014144082392723271864_" gradientUnits="userSpaceOnUse" x1="-76.0487" y1="404.4653" x2="-64.8874" y2="424.3616" gradientTransform="matrix(-1 0 0 1 309.3744 0)">
				<stop  offset="0" style="stop-color:#CBE4FE"/>
				<stop  offset="1" style="stop-color:#CBE4FE;stop-opacity:0"/>
			</linearGradient>
			<polygon style="fill:url(#SVGID_00000048465645262658194930000014144082392723271864_);" points="404.332,413.595 
				378.549,427.966 354.3,417.107 381.802,401.779 			"/>
			<g>
				<g>
					<path style="fill:#9593B5;" d="M377.044,369.82l-0.057,32.618c-0.013,7.513,7.69,13.629,17.206,13.664
						c9.515,0.035,17.24-6.026,17.253-13.538l0.057-32.618L377.044,369.82z"/>
					<path style="fill:#BBB8CE;" d="M386.617,369.855l-9.573-0.035l-0.056,32.618c-0.009,5.362,3.923,10,9.629,12.236V369.855z"/>
					<path style="fill:#EBEAF0;" d="M411.503,369.946c-0.013,7.511-7.738,13.573-17.253,13.538
						c-9.516-0.035-17.219-6.153-17.206-13.664c0.013-7.511,7.738-13.572,17.254-13.537
						C403.813,356.317,411.516,362.435,411.503,369.946z"/>
					<path style="fill:#BBB8CE;" d="M408.074,369.764c-0.01,5.874-6.197,10.615-13.818,10.586
						c-7.622-0.028-13.791-4.813-13.781-10.688c0.01-5.874,6.196-10.614,13.818-10.586
						C401.914,359.105,408.084,363.89,408.074,369.764z"/>
					<path style="fill:#EC9227;" d="M394.281,366.037c6.038,0.022,11.151,3.035,13.016,7.204c-1.879,4.156-7.003,7.131-13.041,7.109
						c-6.038-0.022-11.151-3.035-13.016-7.204C383.119,368.99,388.243,366.015,394.281,366.037z"/>
				</g>
				<g>
					<defs>
						<path id="SVGID_00000132796273045772980460000000162767361907434154_" d="M408.074,369.764
							c-0.01,5.874-6.197,10.615-13.818,10.586c-7.622-0.028-13.791-4.813-13.781-10.688c0.003-1.405-43.63-25.68-43.804-27.054
							c-3.399-26.786,28.717-38.428,56.948-41.351c28.109-2.91,66.161,32.963,51.394,55.025
							C444.549,356.975,408.075,368.91,408.074,369.764z"/>
					</defs>
					<clipPath id="SVGID_00000054257165410993120490000009933899154321804432_">
						<use xlink:href="#SVGID_00000132796273045772980460000000162767361907434154_"  style="overflow:visible;"/>
					</clipPath>
					<g id="XMLID_7_" style="clip-path:url(#SVGID_00000054257165410993120490000009933899154321804432_);">
						<g>
							<path id="XMLID_9_" style="fill:#00A1BE;" d="M389.196,382.45c-0.165-0.212-8.226-27.631-0.021-45.48
								c8.205-17.85,21.384-18.361,25.565-14.95c4.181,3.411,3.24,6.551-4.151,16.864c-6.706,9.358-14.697,21.87-13.402,41.423
								L389.196,382.45z"/>
						</g>
						<g id="XMLID_8_">
							<path style="fill:#FAFAFA;" d="M392.729,382.063c-0.025,0.009-0.051,0.017-0.076,0.023c-0.294,0.064-0.583-0.122-0.649-0.415
								c-6.821-31.051,7.81-53.661,16.78-58.342c0.258-0.147,0.594-0.037,0.734,0.231c0.139,0.267,0.036,0.595-0.231,0.734
								c-8.719,4.551-22.916,26.661-16.219,57.144C393.126,381.706,392.978,381.969,392.729,382.063z"/>
						</g>
					</g>
					<g id="XMLID_10_" style="clip-path:url(#SVGID_00000054257165410993120490000009933899154321804432_);">
						<g>
							<path id="XMLID_12_" style="fill:#00A1BE;" d="M394.911,381.183c0.048-0.264-5.595-28.281-21.171-40.252
								c-15.576-11.971-27.475-6.284-29.586-1.318c-2.11,4.966,0.186,7.306,11.53,12.988c10.294,5.155,23.194,12.504,31.158,30.409
								L394.911,381.183z"/>
						</g>
						<g id="XMLID_11_">
							<path style="fill:#FAFAFA;" d="M391.604,382.487c0.026-0.003,0.052-0.008,0.078-0.015c0.29-0.08,0.46-0.379,0.381-0.669
								c-8.432-30.653-31.912-43.843-42.029-43.806c-0.297-0.01-0.543,0.244-0.542,0.546c0.001,0.301,0.245,0.544,0.546,0.542
								c9.836-0.035,32.698,12.914,40.974,43.007C391.087,382.355,391.34,382.52,391.604,382.487z"/>
						</g>
					</g>
					<g id="XMLID_4_" style="clip-path:url(#SVGID_00000054257165410993120490000009933899154321804432_);">
						<g>
							<path id="XMLID_6_" style="fill:#00A1BE;" d="M390.528,383.191c-0.073-0.259,2.885-28.684,17.255-42.08
								c14.37-13.396,26.755-8.864,29.327-4.12c2.572,4.743,0.508,7.291-10.245,14.023c-9.758,6.109-21.902,14.649-28.131,33.229
								L390.528,383.191z"/>
						</g>
						<g id="XMLID_5_">
							<path style="fill:#FAFAFA;" d="M393.944,384.175c-0.026-0.001-0.053-0.004-0.08-0.008c-0.296-0.052-0.493-0.334-0.443-0.63
								c5.484-31.315,27.606-46.674,37.681-47.597c0.295-0.039,0.563,0.191,0.591,0.492c0.028,0.3-0.192,0.565-0.492,0.591
								c-9.794,0.898-31.324,15.96-36.707,46.702C394.447,383.995,394.21,384.183,393.944,384.175z"/>
						</g>
					</g>
				</g>
			</g>
		</g>
	</g>
</g>
</svg>
